<svg width="21" height="20" viewBox="0 0 21 20" fill="none" xmlns="http://www.w3.org/2000/svg">
<path fill-rule="evenodd" clip-rule="evenodd" d="M12.412 1.98733C11.2643 1.18391 9.73666 1.18391 8.58893 1.98733L2.85761 5.99925C1.8921 6.67511 1.35524 7.81058 1.44564 8.98567L2.03315 16.6234C2.14396 18.0638 3.44913 19.1108 4.87934 18.9065L7.52069 18.5292C8.75231 18.3532 9.66713 17.2984 9.66713 16.0543V14.9998C9.66713 14.5396 10.0402 14.1665 10.5005 14.1665C10.9607 14.1665 11.3338 14.5396 11.3338 14.9998V16.0543C11.3338 17.2984 12.2486 18.3532 13.4802 18.5292L16.1216 18.9065C17.5518 19.1108 18.857 18.0639 18.9678 16.6234L19.5553 8.98568C19.6457 7.81059 19.1088 6.67511 18.1433 5.99925L12.412 1.98733ZM9.5447 3.35271C10.1186 2.95101 10.8824 2.95101 11.4562 3.35271L17.1876 7.36463C17.6703 7.70256 17.9387 8.2703 17.8935 8.85785L17.306 16.4955C17.2691 16.9757 16.834 17.3247 16.3573 17.2566L13.7159 16.8793C13.3054 16.8206 13.0005 16.469 13.0005 16.0543V14.9998C13.0005 13.6191 11.8812 12.4998 10.5005 12.4998C9.11976 12.4998 8.00047 13.6191 8.00047 14.9998V16.0543C8.00047 16.469 7.69553 16.8206 7.28499 16.8793L4.64364 17.2566C4.1669 17.3247 3.73184 16.9757 3.69491 16.4955L3.10739 8.85785C3.0622 8.2703 3.33062 7.70256 3.81338 7.36463L9.5447 3.35271Z" fill="black"/>
</svg>
