<svg width="20" height="20" viewBox="0 0 20 20" fill="none" xmlns="http://www.w3.org/2000/svg">
<g clip-path="url(#clip0_509_2030)">
<path d="M2.28526 19.9213C1.91104 19.8227 1.58807 19.6775 1.29018 19.4742C1.03877 19.3026 0.671271 18.9477 0.531505 18.7417C0.360802 18.49 0.16463 18.0591 0.0846304 17.7602C0.00306787 17.4552 0.00181787 17.3338 0.000255374 10.0153C-0.00115088 2.73384 0.000489755 2.57369 0.0804116 2.2608C0.363146 1.15415 1.23854 0.312202 2.3676 0.0609517C2.69221 -0.0112358 17.1938 -0.0238139 17.5439 0.0476705C18.492 0.241655 19.2371 0.811733 19.6683 1.67306C20.0111 2.35783 19.9805 1.60431 19.9962 9.73439C20.0062 14.9072 19.997 17.0789 19.964 17.3495C19.8096 18.6155 18.9379 19.5975 17.6835 19.9184C17.3626 20.0004 17.251 20.0017 9.96565 19.9994C2.92158 19.9973 2.55986 19.9936 2.28526 19.9213Z" fill="#F06A35"/>
<path d="M12.8389 16.1299C13.735 16.0077 14.4372 15.6485 15.096 14.9755C15.5725 14.4886 15.8708 13.9617 16.0658 13.2622C16.1468 12.9717 16.1536 12.8302 16.1684 11.1243C16.1796 9.83674 16.1703 9.23369 16.1368 9.0815C16.0882 8.8608 15.9504 8.65588 15.7932 8.57049C15.7448 8.54416 15.435 8.51064 15.1046 8.49603C14.5509 8.47143 14.4889 8.46064 14.3143 8.35822C14.0371 8.19572 13.9607 8.02041 13.96 7.54416C13.9585 6.63424 13.5798 5.78947 12.8317 5.02697C12.2986 4.48385 11.704 4.11619 11.0254 3.91017C10.8629 3.8608 10.4991 3.844 9.28066 3.82971C7.36879 3.80705 6.94441 3.84627 6.29347 4.10549C5.09347 4.58346 4.23137 5.59072 3.91683 6.88213C3.85777 7.12471 3.84629 7.51338 3.8323 9.74642C3.81488 12.5439 3.8341 12.9547 4.00887 13.5091C4.1534 13.9671 4.2991 14.2478 4.59926 14.6462C5.17113 15.4052 6.02816 15.9532 6.88504 16.1081C7.29285 16.1817 12.3237 16.2002 12.8389 16.1299" fill="white"/>
<path d="M12.6811 11.7524C13.0118 12.0612 12.942 12.611 12.5435 12.8368L12.1339 12.9034L9.71678 12.9314C8.08709 12.9466 7.5974 12.9145 7.49732 12.8748L7.4942 12.8735C7.29748 12.7878 7.11435 12.5498 7.08271 12.3387C7.05256 12.1377 7.15365 11.8614 7.30849 11.7212L7.34295 11.6912C7.4956 11.5658 7.67123 11.5433 9.11131 11.5382L10.7767 11.5365C12.4602 11.5377 12.475 11.56 12.6811 11.7524ZM10.3082 7.19375C10.5649 7.32344 10.6765 7.50625 10.6765 7.79742C10.6765 8.05023 10.5796 8.23023 10.3644 8.37539L10.3227 8.40203C10.218 8.46453 10.1154 8.47539 9.30388 8.48172L8.78021 8.48469C8.13107 8.48602 7.63138 8.47242 7.55154 8.45039C7.09342 8.32414 6.92224 7.66687 7.25896 7.32695L7.29029 7.29586C7.47053 7.12125 7.58521 7.1032 8.64123 7.10156L9.43701 7.10219C10.1095 7.10531 10.1632 7.12055 10.3082 7.19375Z" fill="#F06A35"/>
</g>
<defs>
<clipPath id="clip0_509_2030">
<rect width="20" height="20" fill="white"/>
</clipPath>
</defs>
</svg>
