<svg width="37" height="11" viewBox="0 0 37 11" fill="none" xmlns="http://www.w3.org/2000/svg">
<path d="M0.206004 0.279296H2.501V10.4043H0.206004V0.279296ZM7.88065 1.3053H10.1621V10.4043H7.88065V1.3053ZM3.84415 0.279296H14.1851V2.3043H3.84415V0.279296ZM20.3551 0.279296C21.5341 0.279296 22.5646 0.490796 23.4466 0.913797C24.3376 1.3368 25.0306 1.9263 25.5256 2.6823C26.0206 3.4383 26.2681 4.3248 26.2681 5.3418C26.2681 6.3498 26.0206 7.2363 25.5256 8.0013C25.0306 8.7573 24.3376 9.3468 23.4466 9.7698C22.5646 10.1928 21.5341 10.4043 20.3551 10.4043H15.5491V0.279296H20.3551ZM17.8306 9.4998L16.6696 8.3793H20.5306C21.2146 8.3793 21.8131 8.2533 22.3261 8.0013C22.8481 7.7493 23.2486 7.3938 23.5276 6.9348C23.8066 6.4758 23.9461 5.9448 23.9461 5.3418C23.9461 4.7298 23.8066 4.1988 23.5276 3.7488C23.2486 3.2898 22.8481 2.9343 22.3261 2.6823C21.8131 2.4303 21.2146 2.3043 20.5306 2.3043H16.6696L17.8306 1.1838V9.4998ZM30.6856 1.3053H32.9671V10.4043H30.6856V1.3053ZM26.6491 0.279296H36.9901V2.3043H26.6491V0.279296Z" fill="#008201"/>
</svg>
