<svg width="50" height="14" viewBox="0 0 50 14" fill="none" xmlns="http://www.w3.org/2000/svg">
<path d="M0.886 0.372558H3.946V13.8726H0.886V0.372558ZM11.1189 1.74056H14.1609V13.8726H11.1189V1.74056ZM5.73686 0.372558H19.5249V3.07256H5.73686V0.372558ZM27.7514 0.372558C29.3234 0.372558 30.6974 0.654558 31.8734 1.21856C33.0614 1.78256 33.9854 2.56856 34.6454 3.57656C35.3054 4.58456 35.6354 5.76656 35.6354 7.12256C35.6354 8.46656 35.3054 9.64856 34.6454 10.6686C33.9854 11.6766 33.0614 12.4626 31.8734 13.0266C30.6974 13.5906 29.3234 13.8726 27.7514 13.8726H21.3434V0.372558H27.7514ZM24.3854 12.6666L22.8374 11.1726H27.9854C28.8974 11.1726 29.6954 11.0046 30.3794 10.6686C31.0754 10.3326 31.6094 9.85856 31.9814 9.24656C32.3534 8.63456 32.5394 7.92656 32.5394 7.12256C32.5394 6.30656 32.3534 5.59856 31.9814 4.99856C31.6094 4.38656 31.0754 3.91256 30.3794 3.57656C29.6954 3.24056 28.8974 3.07256 27.9854 3.07256H22.8374L24.3854 1.57856V12.6666ZM41.5255 1.74056H44.5675V13.8726H41.5255V1.74056ZM36.1435 0.372558H49.9315V3.07256H36.1435V0.372558Z" fill="#D0E7E9"/>
</svg>
