<svg width="78" height="72" viewBox="0 0 78 72" fill="none" xmlns="http://www.w3.org/2000/svg">
<g clip-path="url(#clip0_509_6)">
<path d="M73.2429 33.4536C72.9654 33.1461 72.8679 32.6024 72.5604 32.4074C70.9479 31.4249 69.3466 30.3636 67.3104 30.3899C66.9722 30.3439 66.6393 30.2648 66.3166 30.1536C66.5583 29.9983 66.8088 29.8568 67.0666 29.7299C68.3228 29.2724 69.2529 27.9636 68.8366 26.7636C68.3416 25.3424 68.6754 24.1387 69.3504 22.9387C68.5479 22.7737 66.7254 23.6886 66.3504 24.3824C65.8516 25.3499 65.3416 26.3136 64.8991 27.3074C64.7089 27.6986 64.6285 28.1341 64.6666 28.5674C64.7754 29.2836 64.5616 29.6324 63.8491 29.7299C63.2677 29.8073 62.6906 29.915 62.1203 30.0524C61.4866 30.2024 60.8641 30.4011 59.9678 30.6561C60.1141 29.7149 60.0504 28.9911 60.3428 28.4624C60.8378 27.5624 60.7441 26.7749 60.5079 25.8374C60.3959 25.1205 60.4589 24.3872 60.6916 23.6999C60.8566 23.0811 61.3666 22.5524 61.5241 21.9336C61.8691 20.5761 63.0541 19.9949 63.8379 19.0424L64.1791 19.2299L61.9666 23.4149C62.8741 23.4149 63.5716 23.4149 64.2691 23.4149C65.4279 23.4374 66.0579 22.8149 66.3804 21.7574C66.4605 21.345 66.6407 20.9587 66.9053 20.6324C67.8129 19.7961 67.9104 18.7349 67.8991 17.6324C67.8991 16.1099 67.8429 14.5911 67.7791 13.0686C67.7305 12.6866 67.6464 12.31 67.5279 11.9436C67.1191 12.4236 66.8866 12.8436 66.5341 13.0686C65.4091 13.8186 64.5429 15.0449 63.0466 15.3186C62.6716 15.3861 62.3829 15.9074 62.0641 16.2261C61.8954 16.3911 61.7416 16.5711 61.5991 16.7286L61.5766 16.5111C61.2016 16.9461 60.8266 17.3474 60.4704 17.7074C60.3166 18.2024 60.1216 18.8624 59.8816 19.5036C59.8104 19.6986 59.5066 19.9874 59.3791 19.9536C59.0041 19.8561 58.6629 19.7436 58.3066 19.6199C57.9016 19.4811 57.5004 19.3349 57.0991 19.1886C57.0892 19.1824 57.0808 19.1742 57.0743 19.1645C57.0679 19.1548 57.0635 19.1439 57.0616 19.1324L54.9016 18.2699C54.4029 18.8549 53.7166 18.6899 53.0266 18.5886C52.5391 18.5136 52.0516 18.4011 51.5604 18.3749C50.4579 18.3149 50.0603 18.8099 50.5666 19.8224C51.5416 21.7874 52.9628 23.3474 55.1978 23.8686C56.1765 24.0352 57.1647 24.1392 58.1566 24.1799C58.2091 24.0712 58.2653 23.9624 58.3216 23.8537L57.1178 21.6824L57.3916 21.5099C58.1079 22.4811 59.5891 22.8261 59.5516 24.4236C59.5147 25.2109 59.521 25.9996 59.5704 26.7861C59.6837 27.6725 59.5658 28.5732 59.228 29.4005C58.8903 30.2278 58.3442 30.9536 57.6428 31.5074C56.9303 32.1036 56.5178 33.0861 55.7941 33.6374C53.6491 35.2499 51.5904 36.9561 49.1079 38.1374C46.7266 39.2624 44.6079 40.9312 42.3579 42.3674C41.7616 42.7424 41.2029 43.2036 40.5804 43.5336C40.2495 43.6232 39.905 43.6511 39.5641 43.6161C39.5641 43.3461 39.5416 43.0799 39.5379 42.8099C39.5379 40.9874 40.6329 39.5436 41.1954 37.9124C41.4965 36.8902 41.9011 35.9013 42.4029 34.9612C43.0516 33.8774 43.9216 32.9286 45.4291 33.0299C45.0275 33.3869 44.6082 33.7236 44.1729 34.0386C43.9215 34.3053 43.7013 34.5997 43.5166 34.9162C43.7979 35.0962 44.0716 35.4036 44.3678 35.4261C45.6166 35.5236 46.8728 35.5499 48.1178 35.5761C50.5141 35.6249 51.9954 34.0762 53.7054 32.4524C51.9541 31.8674 50.3304 31.4849 48.8304 30.7761C47.1166 29.9586 45.4854 30.6674 43.7079 30.8999C44.4879 28.7999 44.2891 26.9586 43.1191 25.4436C42.1823 24.184 41.4344 22.7944 40.8991 21.3186C40.7676 21.0741 40.6023 20.8494 40.4078 20.6511C40.1791 20.8386 39.8529 20.9811 39.7329 21.2249C38.9829 22.6986 38.2929 24.1911 37.5916 25.6836C36.6691 27.6599 37.3028 30.6524 38.9303 31.9911C39.1854 32.1711 39.4537 32.3316 39.7329 32.4711C40.5954 30.5399 39.6354 28.6086 40.2016 26.7149C40.7077 27.4304 41.0975 28.2214 41.3566 29.0586C41.6678 30.4311 41.8554 31.8524 41.1204 33.1836C40.6666 34.0124 40.1979 34.8336 39.7704 35.6736C39.1816 36.8211 38.6266 37.9874 38.0528 39.1424C37.8316 39.5961 37.6029 40.0424 37.3779 40.4924C37.1191 41.0137 36.8229 41.5161 36.6054 42.0524C36.2979 42.8024 36.0466 43.5899 35.7729 44.3587L35.4204 44.3174C35.3079 43.2261 35.1466 42.1349 35.0904 41.0361C35.0079 39.4836 35.1879 37.8974 34.9254 36.3824C34.5504 34.2111 34.3966 32.0924 34.9554 29.9436C34.9647 29.749 34.9432 29.5541 34.8916 29.3661C34.8129 28.5224 34.6928 27.6786 34.6778 26.8311C34.6778 26.4261 34.9216 26.0174 34.9591 25.6049C35.0753 24.2061 35.0266 22.7811 35.2741 21.4124C35.5216 20.0436 36.7741 19.3386 37.4866 18.2849C37.5466 18.2024 37.7341 18.2099 37.8616 18.1761C38.1654 18.3824 38.4729 18.7499 38.7654 18.7386C39.9691 18.6786 41.1691 18.4874 42.3729 18.3636C45.3354 18.0411 47.7128 16.5711 49.7828 14.5386C50.0957 14.1482 50.3601 13.7214 50.5704 13.2674C49.7304 13.2974 49.1341 13.6424 48.5154 13.6724C47.3004 13.7436 46.0741 13.6724 44.8516 13.6161C44.5621 13.5943 44.2783 13.5246 44.0116 13.4099C42.4015 12.791 40.6192 12.791 39.0091 13.4099C37.9366 13.8074 36.9654 14.4749 35.8779 15.0636C35.7166 14.3511 35.4354 13.7136 35.4541 13.0836C35.5591 9.42364 33.5791 7.1624 30.5791 5.5199C29.1879 4.7699 27.8416 3.92239 26.4541 3.14989C25.9229 2.84141 25.3563 2.59839 24.7666 2.42615C24.6179 2.43239 24.4732 2.47669 24.3465 2.55482C24.2198 2.63296 24.1152 2.7423 24.0429 2.87239C23.8052 3.89573 23.6633 4.939 23.6191 5.98865C23.6191 7.03115 23.5478 8.23865 24.0128 9.0824C24.7584 10.3665 25.7098 11.5193 26.8291 12.4949C27.7666 13.3386 28.9628 13.9011 30.0728 14.5424C30.5676 14.848 31.1082 15.0721 31.6741 15.2061C32.5366 15.3786 32.9116 14.9024 32.5254 14.1261C31.9254 12.9074 31.2391 11.7374 30.5941 10.5411C30.5051 10.3625 30.4275 10.1783 30.3616 9.98989C30.5461 9.97104 30.7325 9.99507 30.9062 10.0601C31.0798 10.1252 31.2361 10.2295 31.3629 10.3649C31.8924 11.1002 32.34 11.8912 32.6978 12.7236C33.1022 13.7936 33.4085 14.8982 33.6129 16.0236C33.9429 17.7674 34.2128 19.5299 34.3966 21.2999C34.4566 21.8511 34.1191 22.4249 34.0216 23.0136C33.7366 24.6974 33.4891 26.3886 33.1966 28.0761C33.0671 28.4784 32.9001 28.8676 32.6978 29.2386L30.3316 25.2636C30.2018 25.597 30.1466 25.9548 30.17 26.3117C30.1933 26.6687 30.2945 27.0162 30.4666 27.3299C31.0966 28.7511 31.8841 30.1686 32.1466 31.6686C32.5441 33.9599 32.5554 36.3149 32.7129 38.6474C32.7111 38.9616 32.6835 39.2752 32.6304 39.5849C31.6966 38.6549 30.7216 37.8261 29.9229 36.8549C28.9613 35.6304 27.7908 34.5855 26.4654 33.7686C24.4854 32.5986 22.6104 31.2561 20.6791 29.9999C20.4741 29.8919 20.247 29.8329 20.0154 29.8274C19.3704 29.7749 18.7741 29.7036 18.5154 28.9461C18.4441 28.7286 18.1779 28.5449 17.9604 28.4024C15.8749 27.006 14.2173 25.0589 13.1716 22.7774C14.7391 23.1524 15.2266 25.1474 17.0341 25.4024C16.9104 24.7236 16.8204 24.1124 16.6854 23.5274C16.5316 22.8336 16.2766 22.1549 16.1866 21.4574C16.0628 20.5086 16.1266 19.5336 15.9766 18.5924C15.7479 17.1674 15.4141 15.7499 13.8991 15.0674C12.4591 14.4224 11.0116 13.7999 9.27911 13.0424V15.6861C9.27911 18.7949 9.02035 21.9411 10.6479 24.8061C10.7807 25.1033 10.9661 25.3739 11.1954 25.6049C11.9716 26.2311 12.7891 26.7974 13.5841 27.4011C13.8016 27.5699 13.9854 27.7761 14.4204 28.1961C14.0291 28.2407 13.6341 28.2407 13.2428 28.1961C12.5488 28.0031 11.8087 28.0631 11.1548 28.3654C10.5008 28.6676 9.97559 29.1924 9.67285 29.8461C8.8607 31.6482 7.74298 33.2963 6.3691 34.7174C6.20146 34.9133 6.05209 35.1242 5.92285 35.3474C5.9716 35.4599 6.0166 35.5686 6.06535 35.6774C7.4191 35.5386 8.78035 35.4374 10.1266 35.2386C10.7622 35.1245 11.3809 34.9305 11.9678 34.6611C12.4664 34.4622 12.9278 34.1808 13.3329 33.8286C13.8954 33.3111 14.3341 32.6624 14.8741 32.1186C15.6991 31.2861 15.6241 30.7311 14.5366 30.3749C15.8191 29.6436 17.0604 29.4524 18.3616 30.2699C19.6629 31.0874 21.2753 30.9449 22.3966 32.2086C23.5178 33.4724 25.0403 34.3049 26.0978 35.5836C27.3766 37.1099 29.0716 38.3249 29.8291 40.2936C29.9941 40.7249 30.3204 41.0661 29.8291 41.3549C29.6703 41.4314 29.4973 41.4742 29.3211 41.4806C29.145 41.4871 28.9694 41.457 28.8053 41.3924C26.7391 40.4511 24.6541 40.4624 22.4303 40.8561C20.9303 41.1224 19.3441 40.9724 17.7991 40.9986C17.643 40.9718 17.4924 40.9199 17.3529 40.8449C17.4091 40.7174 17.4691 40.5937 17.5291 40.4699H20.2029C19.4529 37.5412 14.8966 34.5561 11.1016 36.2324C11.4766 36.8886 12.0504 37.5149 12.1479 38.2086C12.227 39.0329 12.5245 39.8211 13.0096 40.4921C13.4948 41.1631 14.15 41.6926 14.9078 42.0261C15.3953 42.2586 15.8903 42.4799 16.4078 42.7236C15.5678 44.5986 13.3554 44.9399 12.4666 46.1436C12.6954 46.7436 12.9616 47.0887 12.9166 47.3849C12.6278 49.1812 12.4891 51.0449 10.9703 52.6349C11.6116 52.5787 12.0241 52.5524 12.4329 52.5036C13.9141 52.3199 15.5003 52.3911 16.3741 50.8011C16.4266 50.7036 16.6066 50.6886 16.7079 50.6099C17.8329 49.7399 19.0704 48.9749 20.0454 47.9586C20.5203 47.4847 20.8666 46.8975 21.0516 46.2525C21.2367 45.6075 21.2543 44.9261 21.1029 44.2724C19.8841 44.3324 19.9479 44.3849 19.2841 45.1986C18.4929 46.1661 17.5704 47.0324 16.7041 47.9436L16.4041 47.7112C16.6591 46.7437 16.9666 45.8137 17.8779 45.1799C18.5641 44.6999 19.2653 44.2312 19.4303 43.3049C19.521 43.0566 19.6963 42.8481 19.9254 42.7161C22.1754 41.1899 24.5153 42.1424 26.7541 42.7161C27.9053 43.0124 28.9629 43.7774 29.9754 44.4599C30.9879 45.1424 32.2666 45.8211 32.2704 47.2311C32.3182 49.7368 32.1929 52.2428 31.8954 54.7311C31.7304 55.9649 31.4941 57.4274 30.4554 57.9561C30.1854 58.8786 30.1291 59.6061 29.7616 60.0899C29.5629 60.3449 28.8166 60.1762 28.3179 60.2024C28.3179 60.1049 28.2916 60.0111 28.2803 59.9174L29.4841 58.4924L29.3228 58.3049C28.9705 58.536 28.6313 58.7863 28.3066 59.0549C27.6166 59.6962 26.9303 60.2211 25.8991 59.8049C25.5511 59.6914 25.183 59.6531 24.8191 59.6924C21.9241 59.8124 19.0253 59.8762 16.1378 60.1087C13.5841 60.3149 11.0416 60.7161 8.49536 61.0424C8.29347 61.091 8.09827 61.164 7.9141 61.2599C7.98629 61.3508 8.07993 61.4224 8.18662 61.4682C8.29331 61.514 8.4097 61.5327 8.52535 61.5224C9.2041 61.3986 9.86785 61.1811 10.5504 61.1024C13.0741 60.8061 15.5978 60.3899 18.1291 60.3149C21.4591 60.2174 24.7966 60.3749 28.1304 60.4837C29.0304 60.5136 29.3566 61.0799 28.9066 61.8074C28.4721 62.4788 27.9356 63.0785 27.3166 63.5849C26.6003 64.1961 25.5916 64.4174 25.3929 65.6249C25.3179 66.0749 24.5641 66.4649 24.0579 66.7761C23.2591 67.2711 22.3741 67.6236 21.5904 68.1374C21.0579 68.4861 20.6941 69.0936 20.1541 69.4199C19.5429 69.7206 18.9052 69.9641 18.2491 70.1474C19.6028 69.9411 20.9566 69.8699 21.9503 68.6474C22.4791 67.9911 23.4878 67.7399 24.2003 67.2186C24.8146 66.8257 25.3553 66.3282 25.7979 65.7486C25.9009 65.5353 26.0757 65.365 26.2917 65.2677C26.5077 65.1703 26.751 65.1521 26.9791 65.2161C27.5 65.2646 28.0245 65.1727 28.4979 64.9499C29.4129 64.5374 30.2678 63.9936 31.1603 63.5249C32.1203 63.0261 32.2554 63.1499 32.3304 64.2074C32.4678 66.3807 32.0198 68.5512 31.0328 70.4924C30.8831 70.9521 30.7887 71.4279 30.7516 71.9099C31.0853 71.7636 31.1828 71.7486 31.1978 71.7074C31.7641 70.1586 31.8316 68.3849 33.2529 67.2074C33.3279 67.1436 33.3241 66.9561 33.3204 66.8324C33.2903 65.5124 33.2529 64.2074 33.2154 62.7074C33.5904 62.4749 34.0179 62.7299 34.4529 63.1574C34.7397 63.5104 35.0878 63.8089 35.4804 64.0386C36.9166 64.6611 37.0816 64.7886 37.0216 66.3261C36.9953 67.0574 36.4854 67.9086 36.7254 68.4861C37.1866 69.5886 36.5904 70.4474 36.4854 71.4111C36.4979 71.5249 36.5309 71.6354 36.5829 71.7374C37.5654 70.0086 37.0253 68.0849 37.3028 66.3561C38.6191 66.2361 39.1516 66.8961 39.7104 67.8561C40.3179 68.9099 41.3228 69.7312 42.1553 70.6574C42.1741 70.6799 42.2154 70.6799 42.2791 70.6986C42.2791 69.4124 41.1991 68.8236 40.5691 67.9686C40.1679 67.4136 39.5603 66.9411 39.8004 66.1686C40.7266 66.2961 41.6041 66.3561 42.4516 66.5436C43.2016 66.7161 44.1316 66.8437 44.5629 67.3499C45.5116 68.4749 47.1429 68.8161 47.7129 70.3086C47.7766 70.4699 48.0879 70.5561 48.2979 70.6424C48.9579 70.9161 49.6254 71.1712 50.2891 71.4299C50.6978 71.5874 51.1066 71.7336 51.5116 71.8874C47.4391 69.2324 45.7029 67.8486 45.1629 66.5249C45.6691 66.4836 46.1566 66.4124 46.6404 66.4086C48.0916 66.4086 49.4229 66.5361 50.5479 67.7436C51.2791 68.5236 52.2203 69.3111 53.4879 69.1949C53.3021 68.9598 53.0908 68.7459 52.8579 68.5574C51.6841 67.7586 50.4916 66.9899 49.3028 66.2099C49.3028 66.1011 49.3029 65.9961 49.3216 65.8911C53.2891 64.5036 57.4254 63.5511 61.1641 61.5674C60.6677 61.5502 60.1726 61.6279 59.7053 61.7962C58.0778 62.3811 56.4766 63.0224 54.8304 63.5849C53.1841 64.1474 51.4966 64.7099 49.8053 65.1786C49.004 65.4498 48.1285 65.3987 47.3641 65.0361C45.6916 64.2599 44.6979 62.8724 43.6141 61.5786C42.7291 60.5361 41.8141 59.4861 41.5966 57.9824C41.4354 56.8574 41.2966 55.6424 40.3741 54.7649C40.2878 54.6824 40.2766 54.5211 40.2391 54.3899C39.9091 53.3661 39.5716 52.3424 39.2641 51.3149C39.1326 51.0144 39.0922 50.6819 39.1479 50.3587C39.6279 49.1549 39.7853 47.7711 40.9816 46.9349C41.1991 46.7849 41.2816 46.4549 41.4728 46.2449C41.8428 45.7731 42.267 45.3464 42.7366 44.9736C43.8054 44.2499 44.9528 43.6499 46.0328 42.9411C46.8653 42.3936 47.6566 41.9061 48.7291 41.9774C49.9816 42.0636 51.2416 41.9999 52.4979 42.0299C55.0554 42.0861 55.2241 42.8136 56.0866 44.9886C55.7812 44.8117 55.467 44.6502 55.1454 44.5049C54.935 44.4194 54.7084 44.381 54.4816 44.3924C54.0316 45.4611 53.2516 46.5711 53.3041 47.6324C53.3754 49.0836 54.5791 50.1636 55.6366 51.2886C56.9754 49.2824 58.6629 47.5761 58.7154 44.8874C62.5666 45.7011 65.3416 42.9411 68.9903 42.4311C68.7621 42.2108 68.5106 42.016 68.2403 41.8499C66.6241 41.2349 65.0416 40.4624 63.3653 40.0874C61.3066 39.6224 59.1691 39.5174 57.2003 40.6161C57.0053 40.7249 56.8778 40.9649 56.7203 41.1411C56.9191 41.2836 57.0953 41.5162 57.3128 41.5462C58.2653 41.6586 59.2216 41.7187 60.1741 41.7824C60.7441 41.8237 61.2991 41.8349 61.8841 41.8611C61.8841 41.9736 61.9179 42.0824 61.9366 42.1949C61.5892 42.3491 61.2197 42.4478 60.8416 42.4874C59.3754 42.4124 57.9578 42.6599 56.4503 41.9361C55.0028 41.2386 53.1916 41.3061 51.5454 41.0061C51.2566 40.9536 50.7954 40.7624 50.7766 40.5936C50.7781 40.4321 50.8144 40.2728 50.883 40.1266C50.9516 39.9803 51.0509 39.8506 51.1741 39.7461C51.5079 39.4574 52.0253 39.3711 52.3366 39.0711C53.3603 38.0736 54.2941 36.9824 55.3366 35.9886C56.4918 34.7812 57.7379 33.6641 59.0641 32.6474C60.4179 31.6949 61.8991 30.7724 63.6691 30.8661C64.7416 30.9299 65.7954 31.2411 66.8641 31.3724C68.3379 31.5374 69.2866 32.4974 70.2916 33.4911C68.9829 33.1161 67.8616 32.0324 66.2228 32.4824C66.3655 32.6871 66.5195 32.8836 66.6841 33.0711C67.6104 33.9786 68.8216 34.7324 69.4029 35.8236C69.6958 36.3997 70.1028 36.9102 70.5992 37.3241C71.0956 37.738 71.671 38.0466 72.2903 38.2311C74.0566 38.8461 75.7816 39.1086 77.1653 37.8111C75.8716 36.3299 74.5441 34.9049 73.2429 33.4536ZM39.1404 16.9161C38.8779 17.4711 38.6903 18.1049 37.9141 18.1461C37.9343 17.8272 38.0699 17.5265 38.2956 17.3002C38.5212 17.0739 38.8215 16.9374 39.1404 16.9161ZM42.4366 64.3611C44.2253 63.5774 45.2791 64.8599 46.7079 65.6774C45.5491 66.1011 44.5141 66.1836 43.5166 65.7936C42.9504 65.5686 42.3129 65.2086 42.4366 64.3611ZM39.6954 64.0686C40.5129 63.9749 41.4316 63.7649 41.7916 64.9124C41.911 65.1689 42.0581 65.4116 42.2304 65.6361C41.4991 66.0524 39.6766 65.7449 39.3279 65.1224C39.1066 64.7174 38.9828 64.1549 39.6954 64.0686ZM53.5966 69.1724H53.5479L53.5704 69.1949L53.5966 69.1724Z" fill="#D0E7E9"/>
<path d="M25.9075 25.2112C26.2825 25.3612 26.6575 25.4961 27.0325 25.6611C27.2177 25.7569 27.3957 25.8659 27.565 25.9874C27.385 26.1449 27.2313 26.3624 27.025 26.4411C25.4041 26.9724 23.6464 26.9046 22.0713 26.2499C20.5113 25.5561 19.1463 24.4274 17.7588 23.3661C20.83 23.5536 23.8413 22.3011 26.98 23.5986C26.7513 20.9961 28.5138 19.8487 29.92 18.4312C31.8925 20.0887 32.0913 22.4924 30.745 24.3786C30.415 24.8399 29.8788 24.7536 29.62 24.2061C29.41 23.8011 29.155 23.4224 28.9188 23.0324L28.6525 23.1637L29.2525 25.3386L26.005 24.7612L25.9075 25.2112Z" fill="#D0E7E9"/>
<path d="M5.18082 30.4687C7.45692 30.4687 9.30207 28.6236 9.30207 26.3474C9.30207 24.0713 7.45692 22.2262 5.18082 22.2262C2.90472 22.2262 1.05957 24.0713 1.05957 26.3474C1.05957 28.6236 2.90472 30.4687 5.18082 30.4687Z" fill="white" stroke="#018103" stroke-width="0.5625" stroke-miterlimit="10"/>
<path d="M2.02772 25.7175L2.47771 26.2462C2.50519 26.2775 2.54286 26.2981 2.58404 26.3043C2.62523 26.3105 2.66727 26.3019 2.70272 26.28C3.19267 25.9742 3.7145 25.7227 4.25896 25.53C5.26771 25.1812 5.90897 23.8425 5.17772 23.5762C4.99194 23.4932 4.82499 23.3733 4.68703 23.2237C4.54907 23.0742 4.44298 22.8981 4.37521 22.7062C4.36117 22.6769 4.33911 22.6521 4.31157 22.6347C4.28403 22.6174 4.25215 22.6082 4.2196 22.6082C4.18704 22.6082 4.15515 22.6174 4.12761 22.6347C4.10007 22.6521 4.07801 22.6769 4.06397 22.7062C3.65147 23.4375 2.68772 25.0725 2.06147 25.47C2.04208 25.4833 2.0257 25.5005 2.01336 25.5206C2.00102 25.5406 1.99301 25.563 1.98983 25.5863C1.98665 25.6096 1.98838 25.6333 1.9949 25.6559C2.00142 25.6785 2.01261 25.6995 2.02772 25.7175Z" fill="#A2B983"/>
<path d="M4.59248 30.2175C4.49823 30.2296 4.40243 30.2191 4.31309 30.1867C4.22375 30.1543 4.14344 30.101 4.07887 30.0313C4.01429 29.9616 3.96731 29.8775 3.94185 29.7859C3.91638 29.6944 3.91317 29.598 3.93247 29.505C3.99334 29.2916 4.00368 29.067 3.96267 28.849C3.92167 28.6309 3.83044 28.4254 3.69622 28.2487C3.23497 27.7162 4.22122 27.555 4.82122 27.4987C4.92908 27.4893 5.03662 27.5201 5.12315 27.5852C5.20968 27.6502 5.2691 27.745 5.28997 27.8512C5.41747 28.4587 5.60123 29.6325 5.20373 29.97C5.02709 30.108 4.81534 30.1937 4.59248 30.2175Z" fill="#A2B983"/>
<path d="M8.31997 24.3262C8.31997 24.3262 7.13497 25.1775 7.13497 25.5263C7.13497 25.875 7.95622 26.9287 7.13497 26.9287C6.31372 26.9287 6.93997 27.8738 7.13497 28.8675L7.18372 29.1113C7.20101 29.1756 7.23509 29.2341 7.28249 29.2809C7.32988 29.3276 7.38888 29.3609 7.45341 29.3773C7.51793 29.3938 7.58566 29.3927 7.64965 29.3743C7.71363 29.3559 7.77155 29.3207 7.81746 29.2725L8.56746 28.1738C8.91638 27.6539 9.0631 27.0243 8.97997 26.4038C8.84122 25.4475 8.60872 24.1687 8.31997 24.3262Z" fill="#A2B983"/>
<path d="M9.6841 46.0274C11.3989 46.0274 12.7891 44.6372 12.7891 42.9224C12.7891 41.2075 11.3989 39.8174 9.6841 39.8174C7.96926 39.8174 6.5791 41.2075 6.5791 42.9224C6.5791 44.6372 7.96926 46.0274 9.6841 46.0274Z" fill="white" stroke="#018103" stroke-width="0.5625" stroke-miterlimit="10"/>
<path d="M7.3069 42.4388L7.64815 42.8363C7.66852 42.86 7.69673 42.8757 7.72768 42.8806C7.75862 42.8854 7.79026 42.879 7.81689 42.8625C8.18667 42.6341 8.58025 42.4468 8.99065 42.3037C9.74065 42.0412 10.2356 41.0325 9.6844 40.83C9.54361 40.7687 9.41719 40.6786 9.31322 40.5656C9.20925 40.4526 9.13004 40.3191 9.08065 40.1737C9.0693 40.1517 9.05208 40.1332 9.03092 40.1203C9.00975 40.1074 8.98544 40.1006 8.96065 40.1006C8.93586 40.1006 8.91155 40.1074 8.89038 40.1203C8.86922 40.1332 8.852 40.1517 8.84065 40.1737C8.53315 40.7212 7.80565 41.955 7.34065 42.255C7.32628 42.2648 7.31399 42.2773 7.3045 42.2919C7.29501 42.3064 7.2885 42.3227 7.28536 42.3398C7.28222 42.3569 7.28251 42.3745 7.28621 42.3914C7.2899 42.4084 7.29694 42.4245 7.3069 42.4388Z" fill="#A2B983"/>
<path d="M9.24176 45.8474C9.1694 45.8584 9.09545 45.8515 9.02634 45.8274C8.95723 45.8033 8.89505 45.7627 8.84518 45.7091C8.79531 45.6556 8.75926 45.5907 8.74015 45.52C8.72104 45.4493 8.71944 45.3751 8.73551 45.3037C8.78148 45.1425 8.78915 44.9727 8.7579 44.808C8.72664 44.6433 8.65734 44.4881 8.55551 44.3549C8.21051 43.9574 8.95301 43.8337 9.39176 43.7962C9.47311 43.7881 9.55458 43.8104 9.6204 43.8589C9.68622 43.9074 9.7317 43.9786 9.74802 44.0587C9.84552 44.5199 9.98051 45.4049 9.68426 45.6562C9.5569 45.759 9.40391 45.8251 9.24176 45.8474Z" fill="#A2B983"/>
<path d="M12.0549 41.4C12.0549 41.4 11.1624 42.0412 11.1624 42.3037C11.1624 42.5662 11.7774 43.3612 11.1624 43.3612C10.5474 43.3612 11.0124 44.0737 11.1624 44.8237L11.1961 45.0075C11.2063 45.0583 11.2307 45.1052 11.2664 45.1427C11.3022 45.1802 11.3479 45.2068 11.3981 45.2193C11.4484 45.2319 11.5012 45.2299 11.5504 45.2137C11.5996 45.1974 11.6432 45.1675 11.6761 45.1275L12.2311 44.3025C12.5005 43.9128 12.6167 43.4375 12.5574 42.9675C12.4449 42.2437 12.2724 41.28 12.0549 41.4Z" fill="#A2B983"/>
<path d="M62.0982 51.4386C63.813 51.4386 65.2032 50.0485 65.2032 48.3336C65.2032 46.6188 63.813 45.2286 62.0982 45.2286C60.3833 45.2286 58.9932 46.6188 58.9932 48.3336C58.9932 50.0485 60.3833 51.4386 62.0982 51.4386Z" fill="white" stroke="#018103" stroke-width="0.5625" stroke-miterlimit="10"/>
<path d="M59.7212 47.8425L60.0624 48.24C60.0828 48.2638 60.111 48.2795 60.1419 48.2843C60.1729 48.2891 60.2045 48.2827 60.2312 48.2662C60.6014 48.0387 60.9949 47.8513 61.4049 47.7075C62.1549 47.445 62.6499 46.4362 62.0986 46.2337C61.9593 46.1741 61.8338 46.0863 61.73 45.976C61.6261 45.8657 61.5461 45.7351 61.4949 45.5925C61.4842 45.5703 61.4674 45.5516 61.4465 45.5385C61.4256 45.5254 61.4014 45.5184 61.3768 45.5184C61.3521 45.5184 61.328 45.5254 61.3071 45.5385C61.2862 45.5516 61.2694 45.5703 61.2586 45.5925C60.9474 46.14 60.2199 47.3737 59.7586 47.6737C59.733 47.6925 59.7151 47.72 59.7082 47.7511C59.7013 47.7821 59.7059 47.8146 59.7212 47.8425Z" fill="#A2B983"/>
<path d="M61.6564 51.2586C61.584 51.2696 61.51 51.2627 61.4409 51.2386C61.3718 51.2145 61.3096 51.1739 61.2598 51.1203C61.2099 51.0668 61.1739 51.0018 61.1547 50.9312C61.1356 50.8605 61.1341 50.7863 61.1501 50.7149C61.1969 50.554 61.2053 50.3843 61.1747 50.2196C61.1441 50.0548 61.0753 49.8995 60.9739 49.7661C60.6251 49.3686 61.3714 49.2449 61.8101 49.2074C61.8913 49.2001 61.9724 49.2228 62.038 49.2711C62.1036 49.3195 62.1493 49.3902 62.1664 49.4699C62.2601 49.9312 62.3989 50.8161 62.0989 51.0674C61.9715 51.1702 61.8185 51.2363 61.6564 51.2586Z" fill="#A2B983"/>
<path d="M64.4689 46.8112C64.4689 46.8112 63.5764 47.4525 63.5764 47.715C63.5764 47.9775 64.1914 48.7725 63.5764 48.7725C62.9614 48.7725 63.4302 49.485 63.5764 50.235L63.6139 50.4187C63.6246 50.4687 63.6491 50.5147 63.6846 50.5515C63.7201 50.5883 63.7652 50.6144 63.8147 50.6269C63.8643 50.6394 63.9163 50.6377 63.965 50.6221C64.0137 50.6066 64.057 50.5777 64.0902 50.5387L64.6452 49.7137C64.9102 49.321 65.021 48.8443 64.9564 48.375C64.8589 47.655 64.6827 46.6912 64.4689 46.8112Z" fill="#A2B983"/>
<path d="M72.9282 30.9825C74.6431 30.9825 76.0332 29.5923 76.0332 27.8775C76.0332 26.1626 74.6431 24.7725 72.9282 24.7725C71.2134 24.7725 69.8232 26.1626 69.8232 27.8775C69.8232 29.5923 71.2134 30.9825 72.9282 30.9825Z" fill="white" stroke="#018103" stroke-width="0.5625" stroke-miterlimit="10"/>
<path d="M70.551 27.39L70.8922 27.7875C70.9116 27.8127 70.9399 27.8295 70.9713 27.8344C71.0027 27.8393 71.0348 27.8319 71.061 27.8137C71.4301 27.5876 71.8223 27.4015 72.231 27.2587C72.981 26.9962 73.4797 25.9875 72.9284 25.785C72.7883 25.722 72.6623 25.6315 72.5579 25.5187C72.4535 25.4059 72.3729 25.2733 72.3209 25.1287C72.3102 25.1065 72.2934 25.0878 72.2725 25.0747C72.2516 25.0616 72.2275 25.0547 72.2028 25.0547C72.1782 25.0547 72.154 25.0616 72.1331 25.0747C72.1122 25.0878 72.0954 25.1065 72.0847 25.1287C71.7772 25.68 71.0459 26.9137 70.5847 27.2137C70.557 27.2327 70.5379 27.2619 70.5316 27.2949C70.5253 27.3279 70.5322 27.3621 70.551 27.39Z" fill="#A2B983"/>
<path d="M72.4816 30.8024C72.4095 30.8126 72.336 30.8052 72.2674 30.7808C72.1988 30.7564 72.1371 30.7157 72.0877 30.6623C72.0383 30.6088 72.0026 30.5441 71.9837 30.4738C71.9647 30.4035 71.9632 30.3297 71.9791 30.2586C72.025 30.0974 72.0327 29.9276 72.0014 29.7629C71.9702 29.5982 71.9009 29.4431 71.7991 29.3099C71.4503 28.9086 72.1966 28.7849 72.6353 28.7474C72.717 28.7402 72.7985 28.7634 72.8642 28.8125C72.93 28.8616 72.9753 28.9332 72.9916 29.0136C73.0891 29.4749 73.2241 30.3599 72.9278 30.6111C72.7991 30.714 72.6449 30.7801 72.4816 30.8024Z" fill="#A2B983"/>
<path d="M75.2948 26.3512C75.2948 26.3512 74.4023 26.9925 74.4023 27.2587C74.4023 27.525 75.021 28.3162 74.4023 28.3162C73.7835 28.3162 74.256 29.0287 74.4023 29.775L74.4398 29.9587C74.4494 30.0098 74.4734 30.0572 74.5089 30.0951C74.5445 30.1331 74.5901 30.1601 74.6404 30.1731C74.6908 30.1861 74.7438 30.1845 74.7933 30.1684C74.8428 30.1524 74.8866 30.1226 74.9198 30.0825L75.4748 29.2575C75.7382 28.8641 75.8489 28.388 75.786 27.9187C75.6885 27.2175 75.516 26.235 75.2948 26.3512Z" fill="#A2B983"/>
<path d="M47.6724 29.4488C49.3872 29.4488 50.7774 28.0586 50.7774 26.3438C50.7774 24.6289 49.3872 23.2388 47.6724 23.2388C45.9575 23.2388 44.5674 24.6289 44.5674 26.3438C44.5674 28.0586 45.9575 29.4488 47.6724 29.4488Z" fill="white" stroke="#018103" stroke-width="0.5625" stroke-miterlimit="10"/>
<path d="M45.2949 25.8562L45.6362 26.2537C45.6555 26.2789 45.6839 26.2957 45.7153 26.3006C45.7467 26.3054 45.7788 26.298 45.8049 26.2799C46.1755 26.054 46.5689 25.868 46.9787 25.7249C47.7287 25.4624 48.2237 24.4537 47.6724 24.2512C47.5324 24.1887 47.4066 24.0983 47.3028 23.9854C47.1989 23.8726 47.1193 23.7397 47.0687 23.5949C47.0579 23.5727 47.0411 23.554 47.0203 23.5409C46.9994 23.5278 46.9752 23.5209 46.9506 23.5209C46.9259 23.5209 46.9017 23.5278 46.8808 23.5409C46.86 23.554 46.8432 23.5727 46.8324 23.5949C46.5212 24.1462 45.7937 25.3799 45.3324 25.6799C45.3041 25.6983 45.2842 25.7272 45.2772 25.7603C45.2702 25.7933 45.2765 25.8278 45.2949 25.8562Z" fill="#A2B983"/>
<path d="M47.2296 29.2686C47.1572 29.2796 47.0833 29.2727 47.0142 29.2486C46.9451 29.2245 46.8829 29.1839 46.833 29.1303C46.7831 29.0768 46.7471 29.0118 46.728 28.9412C46.7089 28.8705 46.7073 28.7963 46.7233 28.7249C46.7701 28.564 46.7786 28.3943 46.748 28.2296C46.7173 28.0648 46.6486 27.9095 46.5471 27.7761C46.1984 27.3749 46.9446 27.2511 47.3833 27.2136C47.4646 27.2066 47.5456 27.2299 47.6107 27.2791C47.6758 27.3282 47.7204 27.3998 47.7358 27.4799C47.8333 27.9374 47.9721 28.8261 47.6721 29.0774C47.5447 29.1802 47.3917 29.2463 47.2296 29.2686Z" fill="#A2B983"/>
<path d="M50.0568 24.8175C50.0568 24.8175 49.1643 25.4587 49.1643 25.725C49.1643 25.9912 49.7793 26.7825 49.1643 26.7825C48.5493 26.7825 49.0143 27.495 49.1643 28.2412L49.2018 28.425C49.2106 28.4761 49.234 28.5237 49.2691 28.5619C49.3043 28.6002 49.3497 28.6275 49.4 28.6405C49.4503 28.6536 49.5032 28.6519 49.5526 28.6356C49.6019 28.6193 49.6454 28.5891 49.6781 28.5487L50.2331 27.7237C50.4981 27.331 50.6089 26.8543 50.5443 26.385C50.4318 25.665 50.2593 24.7012 50.0568 24.8175Z" fill="#A2B983"/>
<path d="M56.7731 17.7224C58.8359 17.7224 60.5081 16.0502 60.5081 13.9874C60.5081 11.9247 58.8359 10.2524 56.7731 10.2524C54.7103 10.2524 53.0381 11.9247 53.0381 13.9874C53.0381 16.0502 54.7103 17.7224 56.7731 17.7224Z" fill="white" stroke="#018103" stroke-width="0.5625" stroke-miterlimit="10"/>
<path d="M53.9204 13.4063L54.3291 13.8825C54.3533 13.9115 54.387 13.9308 54.4241 13.937C54.4613 13.9431 54.4994 13.9358 54.5316 13.9163C54.9761 13.6425 55.4489 13.4174 55.9416 13.245C56.8529 12.93 57.4416 11.7188 56.7741 11.475C56.6059 11.3999 56.4547 11.2913 56.3296 11.1559C56.2045 11.0206 56.1083 10.8612 56.0466 10.6876C56.0353 10.6605 56.0168 10.6372 55.9929 10.6202C55.9691 10.6032 55.941 10.5931 55.9118 10.5912C55.8826 10.5892 55.8534 10.5955 55.8276 10.6092C55.8017 10.6229 55.7802 10.6435 55.7654 10.6688C55.3904 11.3325 54.5166 12.8138 53.9466 13.1738C53.9282 13.1862 53.9127 13.2025 53.9012 13.2216C53.8896 13.2406 53.8824 13.2619 53.8799 13.284C53.8774 13.3061 53.8797 13.3285 53.8867 13.3496C53.8937 13.3707 53.9052 13.3901 53.9204 13.4063Z" fill="#A2B983"/>
<path d="M56.2415 17.5049C56.1548 17.5171 56.0665 17.5083 55.984 17.479C55.9015 17.4498 55.8273 17.4011 55.7676 17.337C55.708 17.273 55.6647 17.1955 55.6414 17.1111C55.6182 17.0267 55.6156 16.938 55.634 16.8524C55.6871 16.6611 55.6954 16.4601 55.6583 16.265C55.6213 16.0699 55.5398 15.886 55.4202 15.7274C55.0002 15.2474 55.8965 15.0974 56.4252 15.0524C56.5233 15.0431 56.6213 15.0706 56.7003 15.1295C56.7793 15.1884 56.8336 15.2745 56.8527 15.3712C56.969 15.9224 57.134 16.9874 56.774 17.2874C56.6189 17.4059 56.4351 17.481 56.2415 17.5049Z" fill="#A2B983"/>
<path d="M59.6195 12.1575C59.6195 12.1575 58.547 12.93 58.547 13.245C58.547 13.56 59.297 14.5162 58.547 14.5162C57.797 14.5162 58.3707 15.3712 58.547 16.2712L58.592 16.4925C58.6034 16.5537 58.632 16.6103 58.6746 16.6558C58.7171 16.7012 58.7718 16.7335 58.8321 16.7489C58.8924 16.7643 58.9559 16.7621 59.015 16.7426C59.0741 16.723 59.1264 16.687 59.1657 16.6387L59.8332 15.645C60.1507 15.174 60.2841 14.6029 60.2082 14.04C60.092 13.1737 59.882 12.015 59.6195 12.1575Z" fill="#A2B983"/>
<path d="M23.4514 22.5449C25.2346 22.5449 26.6802 21.0993 26.6802 19.3162C26.6802 17.533 25.2346 16.0874 23.4514 16.0874C21.6682 16.0874 20.2227 17.533 20.2227 19.3162C20.2227 21.0993 21.6682 22.5449 23.4514 22.5449Z" fill="white" stroke="#018103" stroke-width="0.5625" stroke-miterlimit="10"/>
<path d="M20.9797 18.8099L21.3322 19.2262C21.3538 19.2506 21.3833 19.2666 21.4155 19.2714C21.4478 19.2762 21.4806 19.2695 21.5084 19.2524C21.8931 19.0174 22.3016 18.8238 22.7272 18.6749C23.5184 18.4012 24.0209 17.3512 23.4509 17.1412C23.3045 17.077 23.173 16.9833 23.0645 16.8658C22.9561 16.7484 22.8732 16.6098 22.8209 16.4587C22.8093 16.4358 22.7916 16.4166 22.7698 16.4032C22.7479 16.3898 22.7228 16.3827 22.6972 16.3827C22.6715 16.3827 22.6464 16.3898 22.6246 16.4032C22.6027 16.4166 22.585 16.4358 22.5734 16.4587C22.2509 17.0287 21.4934 18.3112 21.0022 18.6224C20.9881 18.6331 20.9764 18.6464 20.9676 18.6617C20.9588 18.677 20.9532 18.6939 20.9511 18.7114C20.949 18.7289 20.9505 18.7467 20.9554 18.7636C20.9603 18.7805 20.9685 18.7963 20.9797 18.8099Z" fill="#A2B983"/>
<path d="M22.9904 22.3424C22.9152 22.3534 22.8385 22.3459 22.7668 22.3206C22.6952 22.2953 22.6308 22.253 22.5791 22.1973C22.5274 22.1416 22.4901 22.0741 22.4703 22.0008C22.4505 21.9274 22.4488 21.8503 22.4654 21.7762C22.5121 21.6091 22.5194 21.4334 22.4869 21.263C22.4543 21.0925 22.3828 20.9319 22.2779 20.7937C21.9029 20.3774 22.6904 20.2462 23.1479 20.2087C23.2331 20.2003 23.3184 20.2236 23.3876 20.2741C23.4567 20.3246 23.5049 20.3987 23.5229 20.4825C23.6204 20.9625 23.7629 21.8812 23.4554 22.1437C23.3201 22.2489 23.16 22.3174 22.9904 22.3424Z" fill="#A2B983"/>
<path d="M25.9107 17.7337C25.9107 17.7337 24.9844 18.4012 24.9844 18.675C24.9844 18.9487 25.6257 19.7737 24.9844 19.7737C24.3432 19.7737 24.8307 20.5237 24.9844 21.2925L25.0219 21.4837C25.032 21.5364 25.057 21.5851 25.0938 21.624C25.1307 21.663 25.1779 21.6906 25.2299 21.7036C25.282 21.7166 25.3366 21.7145 25.3875 21.6974C25.4383 21.6804 25.4832 21.6492 25.5169 21.6075L26.0944 20.7487C26.37 20.342 26.4862 19.8481 26.4207 19.3612C26.3194 18.6112 26.1394 17.61 25.9107 17.7337Z" fill="#A2B983"/>
<path d="M39.9508 10.5638C42.7903 10.5638 45.0921 8.26193 45.0921 5.4225C45.0921 2.58307 42.7903 0.28125 39.9508 0.28125C37.1114 0.28125 34.8096 2.58307 34.8096 5.4225C34.8096 8.26193 37.1114 10.5638 39.9508 10.5638Z" fill="white" stroke="#018103" stroke-width="0.5625" stroke-miterlimit="10"/>


</g>
<defs>
<clipPath id="clip0_509_6">
<rect width="76.4438" height="71.8725" fill="white" transform="translate(0.77832)"/>
</clipPath>
</defs>
</svg>
