<svg width="21" height="20" viewBox="0 0 21 20" fill="none" xmlns="http://www.w3.org/2000/svg">
<path fill-rule="evenodd" clip-rule="evenodd" d="M16.3335 17.5C18.1744 17.5 19.6668 16.0076 19.6668 14.1667V6.68557C19.6671 6.67283 19.6671 6.66005 19.6668 6.64725V5.83333C19.6668 3.99238 18.1744 2.5 16.3335 2.5H4.66681C2.82586 2.5 1.33347 3.99238 1.33347 5.83333V6.64726C1.33318 6.66005 1.33318 6.67282 1.33347 6.68556V14.1667C1.33347 16.0076 2.82586 17.5 4.66681 17.5H16.3335ZM3.00014 14.1667C3.00014 15.0871 3.74633 15.8333 4.66681 15.8333H16.3335C17.2539 15.8333 18.0001 15.0871 18.0001 14.1667V7.89753L11.7381 10.4023C10.9434 10.7202 10.0569 10.7202 9.26217 10.4023L3.00014 7.89753V14.1667ZM11.1191 8.85488L18.0001 6.10247V5.83333C18.0001 4.91286 17.2539 4.16667 16.3335 4.16667H4.66681C3.74633 4.16667 3.00014 4.91286 3.00014 5.83333V6.10247L9.88116 8.85488C10.2785 9.01382 10.7218 9.01382 11.1191 8.85488Z" fill="black"/>
</svg>
