<svg width="20" height="21" viewBox="0 0 20 21" fill="none" xmlns="http://www.w3.org/2000/svg">
<g id="icon / multiply">
<path id="icon" d="M5.87571 5.09955C5.55028 4.77411 5.02264 4.77411 4.6972 5.09955C4.37177 5.42498 4.37177 5.95262 4.6972 6.27806L8.82199 10.4028L4.6972 14.5276C4.37177 14.8531 4.37177 15.3807 4.6972 15.7061C5.02264 16.0316 5.55028 16.0316 5.87571 15.7061L10.0005 11.5814L14.1253 15.7061C14.4507 16.0316 14.9784 16.0316 15.3038 15.7061C15.6292 15.3807 15.6292 14.8531 15.3038 14.5276L11.179 10.4028L15.3038 6.27806C15.6292 5.95262 15.6292 5.42498 15.3038 5.09955C14.9784 4.77411 14.4507 4.77411 14.1253 5.09955L10.0005 9.22434L5.87571 5.09955Z" fill="white"/>
</g>
</svg>
