<svg width="20" height="21" viewBox="0 0 20 21" fill="none" xmlns="http://www.w3.org/2000/svg">
<path d="M5.87571 5.09857C5.55028 4.77313 5.02264 4.77313 4.6972 5.09857C4.37177 5.42401 4.37177 5.95164 4.6972 6.27708L8.82199 10.4019L4.6972 14.5267C4.37177 14.8521 4.37177 15.3797 4.6972 15.7052C5.02264 16.0306 5.55028 16.0306 5.87571 15.7052L10.0005 11.5804L14.1253 15.7052C14.4507 16.0306 14.9784 16.0306 15.3038 15.7052C15.6292 15.3797 15.6292 14.8521 15.3038 14.5267L11.179 10.4019L15.3038 6.27708C15.6292 5.95164 15.6292 5.42401 15.3038 5.09857C14.9784 4.77313 14.4507 4.77313 14.1253 5.09857L10.0005 9.22336L5.87571 5.09857Z" fill="black"/>
</svg>
