<svg width="21" height="20" viewBox="0 0 21 20" fill="none" xmlns="http://www.w3.org/2000/svg">
<path fill-rule="evenodd" clip-rule="evenodd" d="M8.72879 2.33959C7.42704 1.03784 5.31649 1.03785 4.01474 2.33959L3.56846 2.78587C2.95316 3.40118 2.5323 4.32324 2.77235 5.32207C3.14036 6.85333 4.24777 9.64369 7.55028 12.9462C10.8528 16.2487 13.6431 17.3561 15.1744 17.7241C16.1732 17.9642 17.0953 17.5433 17.7106 16.928L18.1569 16.4817C19.4586 15.18 19.4586 13.0694 18.1569 11.7677L17.3828 10.9936C16.3218 9.93257 14.6825 9.71128 13.3781 10.453L13.2977 10.4988C12.7631 10.8027 12.1491 10.7779 11.714 10.463C11.363 10.209 11.0275 9.94164 10.7912 9.70529C10.5548 9.46894 10.2875 9.13345 10.0334 8.78242C9.71862 8.3474 9.69377 7.73333 9.99772 7.1988L10.0435 7.11835C10.7852 5.81394 10.5639 4.17471 9.50285 3.11366L8.72879 2.33959ZM5.19325 3.5181C5.84413 2.86723 6.8994 2.86723 7.55028 3.5181L8.32434 4.29217C8.85487 4.82269 8.96551 5.64231 8.59465 6.29452L8.5489 6.37496C7.96148 7.40801 7.94087 8.73374 8.68327 9.75956C8.95596 10.1364 9.28368 10.5548 9.61267 10.8838C9.94166 11.2128 10.3601 11.5405 10.7369 11.8132C11.7627 12.5556 13.0885 12.535 14.1215 11.9476L14.202 11.9018C14.8542 11.531 15.6738 11.6416 16.2043 12.1721L16.9784 12.9462C17.6292 13.5971 17.6292 14.6523 16.9784 15.3032L16.5321 15.7495C16.2097 16.0719 15.8544 16.1734 15.5639 16.1036C14.3397 15.8094 11.8202 14.8591 8.72879 11.7677C5.63739 8.67629 4.68709 6.15681 4.39288 4.93261C4.32305 4.64207 4.4246 4.28676 4.74698 3.96438L5.19325 3.5181Z" fill="black"/>
</svg>
