<svg width="20" height="20" viewBox="0 0 20 20" fill="none" xmlns="http://www.w3.org/2000/svg">
<path d="M10.0008 1.66602C14.6033 1.66602 18.3342 5.39685 18.3342 9.99935C18.3342 14.6018 14.6033 18.3327 10.0008 18.3327C8.52812 18.3352 7.08131 17.9455 5.80916 17.2035L1.67083 18.3327L2.79749 14.1927C2.05496 12.9201 1.66491 11.4727 1.66749 9.99935C1.66749 5.39685 5.39833 1.66602 10.0008 1.66602ZM7.16083 6.08268L6.99416 6.08935C6.8864 6.09677 6.78112 6.12508 6.68416 6.17268C6.59381 6.22394 6.51129 6.28793 6.43916 6.36268C6.33916 6.45685 6.28249 6.53852 6.22166 6.61768C5.91343 7.01843 5.74747 7.51044 5.74999 8.01602C5.75166 8.42435 5.85833 8.82185 6.02499 9.19352C6.36583 9.94518 6.92666 10.741 7.66666 11.4785C7.84499 11.656 8.01999 11.8343 8.20833 12.0002C9.12785 12.8097 10.2236 13.3935 11.4083 13.7052L11.8817 13.7777C12.0358 13.786 12.19 13.7743 12.345 13.7668C12.5876 13.7541 12.8246 13.6884 13.0392 13.5743C13.1482 13.518 13.2547 13.4568 13.3583 13.391C13.3583 13.391 13.3936 13.3671 13.4625 13.316C13.575 13.2327 13.6442 13.1735 13.7375 13.076C13.8075 13.0038 13.8658 12.9199 13.9125 12.8243C13.9775 12.6885 14.0425 12.4293 14.0692 12.2135C14.0892 12.0485 14.0833 11.9585 14.0808 11.9027C14.0775 11.8135 14.0033 11.721 13.9225 11.6818L13.4375 11.4643C13.4375 11.4643 12.7125 11.1485 12.2692 10.9468C12.2228 10.9266 12.1731 10.9151 12.1225 10.9127C12.0655 10.9067 12.0078 10.9131 11.9535 10.9313C11.8991 10.9496 11.8493 10.9793 11.8075 11.0185C11.8033 11.0168 11.7475 11.0643 11.145 11.7943C11.1104 11.8408 11.0628 11.8759 11.0082 11.8952C10.9535 11.9145 10.8944 11.9171 10.8383 11.9027C10.784 11.8882 10.7308 11.8698 10.6792 11.8477C10.5758 11.8043 10.54 11.7877 10.4692 11.7577C9.99072 11.5493 9.54786 11.2672 9.15666 10.9218C9.05166 10.8302 8.95416 10.7302 8.85416 10.6335C8.52634 10.3195 8.24062 9.96434 8.00416 9.57685L7.95499 9.49768C7.92021 9.44418 7.89169 9.38686 7.86999 9.32685C7.83833 9.20435 7.92083 9.10602 7.92083 9.10602C7.92083 9.10602 8.12333 8.88435 8.21749 8.76435C8.30916 8.64768 8.38666 8.53435 8.43666 8.45352C8.53499 8.29518 8.56583 8.13268 8.51416 8.00685C8.28083 7.43685 8.03972 6.8699 7.79083 6.30602C7.74166 6.19435 7.59583 6.11435 7.46333 6.09852C7.41833 6.09296 7.37333 6.08852 7.32833 6.08518C7.21643 6.07876 7.10424 6.07988 6.99249 6.08852L7.16083 6.08268Z" fill="#1DCE2E"/>
</svg>
