<svg width="398" height="57" viewBox="0 0 398 57" fill="none" xmlns="http://www.w3.org/2000/svg">
<g clip-path="url(#clip0_410_4992)">
<path d="M40.7615 18.8172C40.6055 18.6443 40.5506 18.3384 40.3776 18.2287C39.4706 17.6761 38.5699 17.0791 37.4245 17.0939C37.2343 17.068 37.047 17.0235 36.8655 16.961C37.0015 16.8736 37.1424 16.794 37.2874 16.7226C37.994 16.4653 38.5172 15.7291 38.283 15.0541C38.0046 14.2546 38.1923 13.5775 38.572 12.9025C38.1206 12.8097 37.0955 13.3244 36.8845 13.7146C36.604 14.2589 36.3171 14.801 36.0682 15.36C35.9612 15.58 35.916 15.825 35.9374 16.0687C35.9986 16.4716 35.8783 16.6678 35.4776 16.7226C35.1505 16.7662 34.8259 16.8267 34.5051 16.904C34.1486 16.9884 33.7985 17.1002 33.2944 17.2436C33.3766 16.7142 33.3408 16.3071 33.5053 16.0096C33.7837 15.5034 33.731 15.0604 33.5981 14.5331C33.5351 14.1298 33.5706 13.7173 33.7015 13.3307C33.7943 12.9827 34.0812 12.6853 34.1698 12.3372C34.3638 11.5736 35.0304 11.2467 35.4712 10.7109L35.6632 10.8164L34.4187 13.1704C34.9291 13.1704 35.3215 13.1704 35.7138 13.1704C36.3656 13.1831 36.72 12.8329 36.9014 12.2381C36.9464 12.0061 37.0479 11.7888 37.1967 11.6053C37.7072 11.1349 37.762 10.5379 37.7557 9.91777C37.7557 9.06137 37.724 8.20707 37.6882 7.35066C37.6609 7.13578 37.6136 6.92393 37.5469 6.71785C37.3169 6.98785 37.1862 7.2241 36.9879 7.35066C36.3551 7.77253 35.8678 8.4623 35.0262 8.61628C34.8152 8.65425 34.6528 8.94746 34.4735 9.12676C34.3786 9.21957 34.2921 9.32082 34.2119 9.40941L34.1993 9.28707C33.9883 9.53176 33.7774 9.75746 33.577 9.95996C33.4905 10.2384 33.3808 10.6096 33.2458 10.9703C33.2058 11.08 33.0349 11.2425 32.9632 11.2235C32.7522 11.1686 32.5603 11.1053 32.3599 11.0357C32.1321 10.9577 31.9064 10.8754 31.6807 10.7932C31.6751 10.7897 31.6704 10.7851 31.6667 10.7796C31.6631 10.7741 31.6607 10.768 31.6596 10.7615L30.4446 10.2764C30.164 10.6054 29.778 10.5126 29.3899 10.4557C29.1157 10.4135 28.8415 10.3502 28.5651 10.3354C27.945 10.3017 27.7214 10.5801 28.0061 11.1496C28.5546 12.255 29.354 13.1325 30.6112 13.4257C31.1617 13.5194 31.7176 13.5779 32.2755 13.6007C32.3051 13.5396 32.3367 13.4784 32.3683 13.4172L31.6912 12.1959L31.8452 12.0989C32.2481 12.6452 33.0813 12.8393 33.0602 13.7378C33.0395 14.1807 33.043 14.6243 33.0708 15.0668C33.1345 15.5653 33.0682 16.072 32.8782 16.5373C32.6882 17.0027 32.381 17.411 31.9865 17.7225C31.5858 18.0578 31.3537 18.6105 30.9466 18.9206C29.7401 19.8276 28.582 20.7874 27.1856 21.4518C25.8462 22.0846 24.6544 23.0233 23.3887 23.8312C23.0533 24.0422 22.739 24.3016 22.3889 24.4872C22.2028 24.5376 22.009 24.5533 21.8172 24.5336C21.8172 24.3818 21.8046 24.232 21.8025 24.0801C21.8025 23.055 22.4184 22.2429 22.7348 21.3253C22.9042 20.7503 23.1318 20.194 23.414 19.6652C23.779 19.0556 24.2683 18.5219 25.1163 18.5789C24.8904 18.7797 24.6546 18.9691 24.4097 19.1463C24.2683 19.2963 24.1444 19.4619 24.0405 19.6399C24.1987 19.7411 24.3527 19.9141 24.5194 19.9268C25.2218 19.9816 25.9284 19.9964 26.6287 20.0111C27.9766 20.0385 28.8098 19.1674 29.7717 18.254C28.7866 17.925 27.8733 17.7098 27.0295 17.3111C26.0655 16.8513 25.148 17.25 24.1481 17.3807C24.5869 16.1995 24.4751 15.1638 23.8169 14.3116C23.29 13.6031 22.8693 12.8214 22.5682 11.9913C22.4942 11.8537 22.4012 11.7273 22.2919 11.6158C22.1632 11.7213 21.9797 11.8014 21.9122 11.9385C21.4903 12.7675 21.1022 13.6071 20.7077 14.4466C20.1888 15.5582 20.5453 17.2415 21.4608 17.9946C21.6042 18.0958 21.7551 18.1861 21.9122 18.2646C22.3973 17.1782 21.8573 16.0919 22.1758 15.0267C22.4605 15.4292 22.6798 15.8741 22.8255 16.345C23.0006 17.1171 23.1061 17.9165 22.6926 18.6653C22.4374 19.1315 22.1737 19.5935 21.9333 20.066C21.6021 20.7114 21.2899 21.3675 20.9672 22.0171C20.8427 22.2724 20.714 22.5234 20.5875 22.7765C20.4419 23.0697 20.2753 23.3524 20.153 23.654C19.98 24.0759 19.8387 24.5189 19.6847 24.9513L19.4864 24.9281C19.4231 24.3143 19.3324 23.7004 19.3008 23.0824C19.2544 22.2091 19.3556 21.3168 19.2079 20.4646C18.997 19.2433 18.9105 18.0515 19.2248 16.8429C19.2301 16.7334 19.218 16.6237 19.189 16.518C19.1447 16.0434 19.0772 15.5688 19.0687 15.0921C19.0687 14.8642 19.2058 14.6343 19.2269 14.4023C19.2923 13.6155 19.2649 12.8139 19.4041 12.044C19.5433 11.2741 20.2479 10.8775 20.6487 10.2848C20.6824 10.2384 20.7879 10.2426 20.8596 10.2236C21.0305 10.3396 21.2034 10.5464 21.368 10.54C22.0451 10.5063 22.7201 10.3987 23.3972 10.3291C25.0636 10.1477 26.4009 9.32082 27.5653 8.17754C27.7413 7.95794 27.89 7.71783 28.0083 7.46246C27.5358 7.47933 27.2004 7.6734 26.8523 7.69027C26.1689 7.73035 25.4791 7.69027 24.7915 7.65863C24.6286 7.64635 24.469 7.60715 24.319 7.54261C23.4133 7.19448 22.4107 7.19448 21.5051 7.54261C20.9018 7.76621 20.3554 8.14168 19.7437 8.47285C19.653 8.07207 19.4948 7.71347 19.5054 7.3591C19.5644 5.30035 18.4507 4.0284 16.7632 3.10449C15.9806 2.68262 15.2233 2.2059 14.4429 1.77137C14.1441 1.59784 13.8253 1.46115 13.4937 1.36426C13.41 1.36777 13.3286 1.39269 13.2573 1.43664C13.1861 1.48059 13.1273 1.54209 13.0865 1.61527C12.9529 2.1909 12.8731 2.77774 12.8482 3.36816C12.8482 3.95457 12.8081 4.63379 13.0697 5.1084C13.489 5.83068 14.0242 6.47915 14.6538 7.02793C15.1812 7.50253 15.854 7.81895 16.4784 8.17965C16.7567 8.35156 17.0608 8.47762 17.3791 8.55301C17.8643 8.65004 18.0752 8.38214 17.858 7.9455C17.5204 7.25996 17.1344 6.60183 16.7716 5.92894C16.7216 5.82843 16.6779 5.72486 16.6408 5.61886C16.7446 5.60826 16.8495 5.62178 16.9471 5.65837C17.0448 5.69496 17.1328 5.75363 17.204 5.8298C17.5019 6.24342 17.7537 6.68832 17.955 7.1566C18.1824 7.75848 18.3547 8.37978 18.4697 9.01285C18.6553 9.99371 18.8072 10.9851 18.9105 11.9807C18.9443 12.2908 18.7544 12.6135 18.6996 12.9447C18.5393 13.8918 18.4001 14.8432 18.2355 15.7924C18.1627 16.0186 18.0688 16.2376 17.955 16.4463L16.624 14.2103C16.551 14.3979 16.5199 14.5991 16.533 14.7999C16.5462 15.0007 16.6031 15.1962 16.6999 15.3726C17.0543 16.1721 17.4972 16.9694 17.6449 17.8132C17.8685 19.102 17.8748 20.4267 17.9634 21.7387C17.9624 21.9155 17.9469 22.0918 17.917 22.266C17.3918 21.7429 16.8433 21.2768 16.394 20.7304C15.8532 20.0417 15.1947 19.4539 14.4492 18.9944C13.3354 18.3363 12.2808 17.5811 11.1944 16.8745C11.0791 16.8137 10.9514 16.7805 10.8211 16.7775C10.4583 16.7479 10.1229 16.7078 9.97733 16.2818C9.93725 16.1594 9.78748 16.056 9.66514 15.9759C8.49209 15.1904 7.5597 14.0952 6.97147 12.8118C7.85319 13.0228 8.1274 14.145 9.14412 14.2884C9.07451 13.9066 9.02389 13.5628 8.94795 13.2337C8.86147 12.8435 8.71803 12.4617 8.6674 12.0693C8.59779 11.5357 8.63365 10.9872 8.54928 10.4578C8.42061 9.65621 8.23287 8.85887 7.38068 8.47496C6.57068 8.11215 5.75647 7.76199 4.78194 7.3359V8.82301C4.78194 10.5717 4.63639 12.3414 5.55186 13.953C5.62656 14.1201 5.73089 14.2724 5.85982 14.4023C6.29646 14.7546 6.75631 15.0731 7.20349 15.4127C7.32584 15.5076 7.4292 15.6236 7.67389 15.8599C7.45382 15.8849 7.23161 15.8849 7.01154 15.8599C6.62112 15.7513 6.20483 15.7851 5.83699 15.9551C5.46915 16.1251 5.17371 16.4203 5.00342 16.788C4.54658 17.8017 3.91786 18.7287 3.14506 19.5281C3.05076 19.6383 2.96674 19.7569 2.89404 19.8825C2.92146 19.9457 2.94678 20.0069 2.9742 20.0681C3.73568 19.99 4.50138 19.9331 5.25865 19.8213C5.6162 19.7571 5.96419 19.6479 6.29435 19.4964C6.57476 19.3845 6.83433 19.2262 7.06217 19.0282C7.37858 18.7371 7.62537 18.3721 7.92912 18.0663C8.39318 17.598 8.351 17.2858 7.73928 17.0854C8.46068 16.6741 9.15889 16.5665 9.89084 17.0264C10.6228 17.4862 11.5298 17.4061 12.1605 18.1169C12.7912 18.8278 13.6476 19.2961 14.2425 20.0153C14.9618 20.8739 15.9152 21.5573 16.3413 22.6647C16.4341 22.9073 16.6176 23.0993 16.3413 23.2617C16.252 23.3047 16.1547 23.3288 16.0556 23.3324C15.9565 23.336 15.8577 23.3191 15.7654 23.2828C14.6032 22.7533 13.4304 22.7596 12.1795 22.9811C11.3358 23.1309 10.4435 23.0465 9.57444 23.0613C9.48665 23.0462 9.40189 23.017 9.32342 22.9748C9.35506 22.9031 9.38881 22.8335 9.42256 22.7639H10.9265C10.5047 21.1164 7.94178 19.4374 5.80709 20.3803C6.01803 20.7494 6.34076 21.1017 6.39561 21.4919C6.44015 21.9555 6.60748 22.3989 6.88036 22.7763C7.15324 23.1538 7.52181 23.4516 7.9481 23.6393C8.22232 23.77 8.50076 23.8945 8.79185 24.0316C8.31935 25.0863 7.07483 25.2782 6.5749 25.9553C6.70358 26.2928 6.85334 26.4869 6.82803 26.6536C6.6656 27.6639 6.58756 28.7123 5.73326 29.6067C6.09396 29.575 6.326 29.5603 6.55592 29.5328C7.38912 29.4295 8.28139 29.4696 8.77287 28.5752C8.8024 28.5204 8.90365 28.5119 8.96061 28.4676C9.59342 27.9782 10.2895 27.5479 10.8379 26.9763C11.1051 26.7097 11.2999 26.3794 11.404 26.0166C11.5081 25.6538 11.518 25.2705 11.4328 24.9028C10.7472 24.9365 10.7831 24.9661 10.4097 25.4238C9.96467 25.968 9.44576 26.4553 8.9585 26.9679L8.78975 26.8371C8.93319 26.2929 9.10615 25.7697 9.61873 25.4132C10.0047 25.1432 10.3992 24.8796 10.492 24.3586C10.543 24.2189 10.6416 24.1016 10.7704 24.0274C12.0361 23.1689 13.3523 23.7047 14.6116 24.0274C15.2592 24.194 15.854 24.6243 16.4236 25.0082C16.9931 25.3921 17.7124 25.7739 17.7145 26.5671C17.7414 27.9765 17.6709 29.3861 17.5036 30.7858C17.4108 31.4798 17.2779 32.3025 16.6936 32.5999C16.5417 33.1188 16.5101 33.528 16.3033 33.8001C16.1915 33.9436 15.7718 33.8486 15.4912 33.8634C15.4912 33.8086 15.4765 33.7558 15.4701 33.7031L16.1472 32.9015L16.0565 32.7961C15.8584 32.926 15.6675 33.0669 15.4849 33.2179C15.0968 33.5786 14.7108 33.874 14.1307 33.6398C13.9349 33.576 13.7279 33.5544 13.5232 33.5765C11.8947 33.644 10.2642 33.6799 8.63998 33.8107C7.20349 33.9267 5.77334 34.1524 4.34108 34.3359C4.22752 34.3632 4.11772 34.4043 4.01412 34.4582C4.05473 34.5094 4.1074 34.5497 4.16741 34.5754C4.22742 34.6012 4.29289 34.6117 4.35795 34.6059C4.73975 34.5363 5.1131 34.4139 5.49701 34.3696C6.91662 34.203 8.33623 33.9689 9.76006 33.9267C11.6332 33.8718 13.5105 33.9604 15.3858 34.0216C15.892 34.0385 16.0755 34.357 15.8224 34.7662C15.578 35.1439 15.2762 35.4812 14.928 35.766C14.5251 36.1099 13.9577 36.2343 13.8459 36.9136C13.8037 37.1667 13.3797 37.3861 13.095 37.5611C12.6457 37.8396 12.1479 38.0378 11.707 38.3268C11.4075 38.523 11.2029 38.8647 10.8991 39.0482C10.5553 39.2174 10.1966 39.3544 9.82756 39.4575C10.589 39.3414 11.3505 39.3014 11.9095 38.6137C12.2069 38.2446 12.7744 38.1032 13.1751 37.81C13.5207 37.589 13.8248 37.3092 14.0737 36.9832C14.1317 36.8632 14.23 36.7674 14.3515 36.7126C14.473 36.6578 14.6099 36.6476 14.7382 36.6836C15.0312 36.7109 15.3262 36.6592 15.5925 36.5339C16.1072 36.3018 16.5881 35.996 17.0901 35.7323C17.6301 35.4518 17.7061 35.5214 17.7483 36.1162C17.8256 37.3387 17.5736 38.5596 17.0184 39.6515C16.9342 39.9101 16.8811 40.1777 16.8602 40.4489C17.0479 40.3666 17.1028 40.3582 17.1112 40.335C17.4297 39.4638 17.4677 38.4661 18.2672 37.8037C18.3094 37.7679 18.3072 37.6624 18.3051 37.5928C18.2883 36.8503 18.2672 36.1162 18.2461 35.2725C18.457 35.1417 18.6975 35.2851 18.9422 35.5256C19.1035 35.7242 19.2993 35.8921 19.5201 36.0213C20.328 36.3714 20.4208 36.4432 20.3871 37.308C20.3723 37.7193 20.0855 38.1982 20.2205 38.523C20.4799 39.1432 20.1445 39.6262 20.0854 40.1683C20.0925 40.2323 20.1111 40.2945 20.1403 40.3518C20.693 39.3794 20.3892 38.2973 20.5453 37.3249C21.2857 37.2574 21.5852 37.6286 21.8995 38.1686C22.2412 38.7614 22.8065 39.2233 23.2748 39.7443C23.2854 39.757 23.3086 39.757 23.3444 39.7675C23.3444 39.044 22.7369 38.7128 22.3826 38.2319C22.1569 37.9197 21.8151 37.6539 21.9501 37.2194C22.4712 37.2911 22.9647 37.3249 23.4415 37.4304C23.8633 37.5274 24.3865 37.5991 24.629 37.8839C25.1627 38.5167 26.0803 38.7086 26.4009 39.5482C26.4368 39.6389 26.6119 39.6874 26.73 39.7359C27.1012 39.8899 27.4767 40.0333 27.8501 40.1789C28.08 40.2675 28.3099 40.3497 28.5377 40.4362C26.2469 38.9428 25.2703 38.1644 24.9665 37.4198C25.2513 37.3966 25.5255 37.3565 25.7976 37.3544C26.614 37.3544 27.3628 37.4261 27.9956 38.1054C28.4069 38.5441 28.9364 38.9871 29.6494 38.9217C29.5448 38.7894 29.426 38.6691 29.295 38.5631C28.6347 38.1138 27.964 37.6814 27.2953 37.2426C27.2953 37.1814 27.2953 37.1224 27.3058 37.0633C29.5376 36.2829 31.8642 35.7471 33.9672 34.6312C33.688 34.6216 33.4095 34.6652 33.1467 34.7599C32.2312 35.089 31.3305 35.4496 30.4045 35.766C29.4785 36.0825 28.5293 36.3989 27.5779 36.6625C27.1272 36.8151 26.6347 36.7863 26.2047 36.5824C25.264 36.1457 24.705 35.3653 24.0954 34.6375C23.5976 34.0511 23.0829 33.4605 22.9605 32.6146C22.8698 31.9818 22.7918 31.2984 22.2729 30.8048C22.2244 30.7584 22.218 30.6677 22.1969 30.5939C22.0113 30.018 21.8215 29.4422 21.6485 28.8642C21.5745 28.6951 21.5518 28.5081 21.5831 28.3263C21.8531 27.6492 21.9417 26.8708 22.6146 26.4004C22.7369 26.3161 22.7833 26.1304 22.8909 26.0123C23.099 25.7469 23.3376 25.5069 23.6018 25.2972C24.203 24.8901 24.8484 24.5526 25.4559 24.1539C25.9242 23.846 26.3693 23.5718 26.9726 23.6118C27.6771 23.6603 28.3858 23.6245 29.0925 23.6414C30.5311 23.673 30.626 24.0822 31.1112 25.3057C30.9393 25.2061 30.7626 25.1153 30.5817 25.0335C30.4634 24.9855 30.3359 24.9639 30.2083 24.9703C29.9552 25.5714 29.5165 26.1958 29.546 26.7928C29.5861 27.6091 30.2632 28.2166 30.858 28.8494C31.6111 27.7209 32.5603 26.7611 32.5898 25.2487C34.7562 25.7064 36.3171 24.1539 38.3695 23.8671C38.2411 23.7432 38.0997 23.6335 37.9476 23.5401C37.0385 23.1942 36.1483 22.7596 35.2054 22.5487C34.0474 22.2871 32.8451 22.2281 31.7376 22.8461C31.6279 22.9073 31.5562 23.0423 31.4676 23.1414C31.5794 23.2216 31.6786 23.3524 31.8009 23.3693C32.3367 23.4325 32.8746 23.4663 33.4104 23.5022C33.731 23.5254 34.0432 23.5317 34.3722 23.5464C34.3722 23.6097 34.3912 23.6709 34.4018 23.7342C34.2063 23.8209 33.9985 23.8764 33.7858 23.8987C32.9611 23.8565 32.1637 23.9957 31.3158 23.5886C30.5015 23.1963 29.4827 23.2343 28.5567 23.0655C28.3943 23.036 28.1348 22.9284 28.1243 22.8335C28.1251 22.7426 28.1456 22.653 28.1841 22.5708C28.2227 22.4885 28.2786 22.4155 28.3479 22.3568C28.5356 22.1943 28.8267 22.1458 29.0018 21.9771C29.5776 21.416 30.1029 20.8022 30.6893 20.2432C31.3391 19.5639 32.04 18.9356 32.786 18.3637C33.5475 17.8279 34.3807 17.309 35.3763 17.3618C35.9796 17.3976 36.5723 17.5727 37.1735 17.6465C38.0025 17.7393 38.5362 18.2793 39.1015 18.8383C38.3653 18.6274 37.7346 18.0178 36.8128 18.2709C36.893 18.386 36.9797 18.4966 37.0723 18.6021C37.5933 19.1125 38.2746 19.5365 38.6015 20.1504C38.7663 20.4744 38.9953 20.7616 39.2745 20.9944C39.5537 21.2272 39.8774 21.4008 40.2258 21.5046C41.2193 21.8505 42.1896 21.9982 42.9679 21.2683C42.2402 20.4351 41.4935 19.6336 40.7615 18.8172ZM21.5789 9.51488C21.4312 9.82707 21.3258 10.1836 20.8891 10.2068C20.9005 10.0273 20.9768 9.85821 21.1037 9.7309C21.2306 9.60359 21.3995 9.52681 21.5789 9.51488ZM23.433 36.2027C24.4392 35.7618 25.0319 36.4832 25.8356 36.9431C25.1838 37.1814 24.6016 37.2279 24.0405 37.0085C23.722 36.8819 23.3634 36.6794 23.433 36.2027ZM21.8911 36.0382C22.3509 35.9854 22.8677 35.8673 23.0702 36.5128C23.1374 36.6571 23.2201 36.7936 23.317 36.9199C22.9057 37.154 21.8805 36.9811 21.6844 36.6309C21.5599 36.4031 21.4903 36.0867 21.8911 36.0382ZM29.7105 38.909H29.6831L29.6958 38.9217L29.7105 38.909Z" fill="#D0E7E9"/>
<path d="M14.1349 14.1819C14.3459 14.2663 14.5568 14.3422 14.7678 14.435C14.8719 14.4889 14.972 14.5502 15.0673 14.6185C14.966 14.7071 14.8795 14.8295 14.7635 14.8738C13.8518 15.1726 12.8631 15.1345 11.9771 14.7662C11.0996 14.376 10.3317 13.741 9.55127 13.1441C11.2788 13.2496 12.9727 12.545 14.7382 13.2749C14.6095 11.811 15.601 11.1655 16.392 10.3682C17.5015 11.3005 17.6133 12.6526 16.856 13.7136C16.6704 13.9731 16.3688 13.9246 16.2232 13.6166C16.1051 13.3888 15.9617 13.1757 15.8288 12.9564L15.679 13.0302L16.0165 14.2536L14.1898 13.9288L14.1349 14.1819Z" fill="#D0E7E9"/>
<path d="M2.47689 17.1384C3.7572 17.1384 4.7951 16.1005 4.7951 14.8202C4.7951 13.5398 3.7572 12.502 2.47689 12.502C1.19659 12.502 0.158691 13.5398 0.158691 14.8202C0.158691 16.1005 1.19659 17.1384 2.47689 17.1384Z" fill="white" stroke="#018103" stroke-width="0.316406" stroke-miterlimit="10"/>
<path d="M0.702361 14.4658L0.955482 14.7632C0.970935 14.7808 0.992124 14.7924 1.01529 14.7959C1.03846 14.7993 1.06211 14.7945 1.08205 14.7822C1.35764 14.6102 1.65117 14.4687 1.95744 14.3603C2.52486 14.1642 2.88556 13.4111 2.47423 13.2613C2.36973 13.2147 2.27583 13.1472 2.19822 13.0631C2.12062 12.9789 2.06094 12.8799 2.02283 12.772C2.01493 12.7555 2.00252 12.7415 1.98703 12.7317C1.97154 12.722 1.9536 12.7168 1.93529 12.7168C1.91698 12.7168 1.89904 12.722 1.88355 12.7317C1.86806 12.7415 1.85565 12.7555 1.84775 12.772C1.61572 13.1833 1.07361 14.103 0.721345 14.3266C0.71044 14.3341 0.701222 14.3438 0.694282 14.355C0.687343 14.3663 0.682835 14.3789 0.681047 14.392C0.679259 14.4051 0.680229 14.4184 0.683899 14.4311C0.687569 14.4439 0.693861 14.4557 0.702361 14.4658Z" fill="#A2B983"/>
<path d="M2.14534 16.997C2.09232 17.0039 2.03844 16.9979 1.98819 16.9797C1.93793 16.9615 1.89276 16.9315 1.85643 16.8923C1.82011 16.8531 1.79369 16.8058 1.77936 16.7543C1.76504 16.7028 1.76323 16.6486 1.77409 16.5962C1.80833 16.4762 1.81414 16.3499 1.79108 16.2272C1.76801 16.1046 1.71669 15.989 1.6412 15.8896C1.38174 15.5901 1.93651 15.4994 2.27401 15.4677C2.33468 15.4624 2.39517 15.4797 2.44384 15.5164C2.49252 15.553 2.52594 15.6063 2.53768 15.666C2.6094 16.0077 2.71276 16.668 2.48917 16.8578C2.38981 16.9354 2.2707 16.9836 2.14534 16.997Z" fill="#A2B983"/>
<path d="M4.24175 13.6832C4.24175 13.6832 3.57519 14.1621 3.57519 14.3582C3.57519 14.5544 4.03714 15.1471 3.57519 15.1471C3.11324 15.1471 3.4655 15.6787 3.57519 16.2377L3.60261 16.3748C3.61233 16.411 3.63151 16.4439 3.65817 16.4702C3.68483 16.4965 3.71801 16.5152 3.75431 16.5245C3.79061 16.5337 3.8287 16.5331 3.86469 16.5228C3.90069 16.5124 3.93327 16.4926 3.95909 16.4655L4.38097 15.8475C4.57723 15.555 4.65976 15.2009 4.613 14.8518C4.53495 14.314 4.40418 13.5946 4.24175 13.6832Z" fill="#A2B983"/>
<path d="M5.00975 25.8896C5.97435 25.8896 6.75631 25.1076 6.75631 24.143C6.75631 23.1784 5.97435 22.3965 5.00975 22.3965C4.04515 22.3965 3.26318 23.1784 3.26318 24.143C3.26318 25.1076 4.04515 25.8896 5.00975 25.8896Z" fill="white" stroke="#018103" stroke-width="0.316406" stroke-miterlimit="10"/>
<path d="M3.67251 23.8719L3.86446 24.0955C3.87592 24.1088 3.89179 24.1177 3.9092 24.1204C3.9266 24.1231 3.9444 24.1195 3.95938 24.1102C4.16738 23.9818 4.38877 23.8764 4.61962 23.7959C5.04149 23.6483 5.31993 23.0808 5.00985 22.9669C4.93066 22.9324 4.85955 22.8818 4.80106 22.8182C4.74258 22.7547 4.69802 22.6796 4.67025 22.5978C4.66386 22.5854 4.65418 22.575 4.64227 22.5677C4.63036 22.5605 4.61669 22.5566 4.60274 22.5566C4.5888 22.5566 4.57513 22.5605 4.56322 22.5677C4.55131 22.575 4.54163 22.5854 4.53524 22.5978C4.36227 22.9058 3.95305 23.5997 3.69149 23.7685C3.68341 23.774 3.67649 23.781 3.67116 23.7892C3.66582 23.7974 3.66216 23.8066 3.66039 23.8162C3.65863 23.8258 3.65879 23.8357 3.66087 23.8452C3.66295 23.8548 3.66691 23.8638 3.67251 23.8719Z" fill="#A2B983"/>
<path d="M4.76063 25.7895C4.71992 25.7957 4.67832 25.7918 4.63945 25.7782C4.60058 25.7647 4.5656 25.7418 4.53755 25.7117C4.50949 25.6816 4.48922 25.6451 4.47847 25.6053C4.46772 25.5656 4.46682 25.5238 4.47586 25.4837C4.50172 25.393 4.50603 25.2975 4.48845 25.2048C4.47087 25.1122 4.43188 25.0249 4.37461 24.95C4.18054 24.7264 4.5982 24.6568 4.845 24.6357C4.89076 24.6311 4.93659 24.6437 4.97361 24.671C5.01063 24.6982 5.03622 24.7383 5.04539 24.7833C5.10024 25.0428 5.17617 25.5406 5.00953 25.6819C4.93789 25.7398 4.85183 25.777 4.76063 25.7895Z" fill="#A2B983"/>
<path d="M6.3433 23.287C6.3433 23.287 5.84126 23.6477 5.84126 23.7953C5.84126 23.943 6.1872 24.3902 5.84126 24.3902C5.49533 24.3902 5.75689 24.791 5.84126 25.2128L5.86025 25.3162C5.86597 25.3448 5.87969 25.3712 5.8998 25.3923C5.91992 25.4134 5.94561 25.4283 5.97389 25.4354C6.00217 25.4424 6.03188 25.4413 6.05956 25.4322C6.08724 25.423 6.11175 25.4062 6.13025 25.3837L6.44244 24.9196C6.59398 24.7005 6.65932 24.4331 6.62595 24.1687C6.56267 23.7616 6.46564 23.2195 6.3433 23.287Z" fill="#A2B983"/>
<path d="M34.4927 28.9345C35.4573 28.9345 36.2392 28.1526 36.2392 27.188C36.2392 26.2234 35.4573 25.4414 34.4927 25.4414C33.5281 25.4414 32.7461 26.2234 32.7461 27.188C32.7461 28.1526 33.5281 28.9345 34.4927 28.9345Z" fill="white" stroke="#018103" stroke-width="0.316406" stroke-miterlimit="10"/>
<path d="M33.1555 26.9108L33.3475 27.1344C33.3589 27.1478 33.3748 27.1566 33.3922 27.1593C33.4096 27.162 33.4274 27.1584 33.4424 27.1492C33.6506 27.0211 33.872 26.9158 34.1026 26.8349C34.5245 26.6872 34.8029 26.1198 34.4929 26.0059C34.4145 25.9723 34.3439 25.923 34.2855 25.8609C34.2271 25.7988 34.182 25.7254 34.1533 25.6452C34.1472 25.6327 34.1378 25.6222 34.126 25.6148C34.1143 25.6074 34.1007 25.6035 34.0868 25.6035C34.0729 25.6035 34.0594 25.6074 34.0476 25.6148C34.0359 25.6222 34.0264 25.6327 34.0204 25.6452C33.8453 25.9531 33.4361 26.6471 33.1766 26.8159C33.1622 26.8264 33.1521 26.8419 33.1482 26.8594C33.1444 26.8768 33.147 26.8951 33.1555 26.9108Z" fill="#A2B983"/>
<path d="M34.2437 28.8323C34.2029 28.8385 34.1614 28.8346 34.1225 28.821C34.0836 28.8075 34.0486 28.7846 34.0206 28.7545C33.9925 28.7244 33.9722 28.6879 33.9615 28.6481C33.9507 28.6084 33.9499 28.5666 33.9589 28.5264C33.9852 28.4359 33.99 28.3405 33.9727 28.2478C33.9555 28.1552 33.9168 28.0678 33.8597 27.9928C33.6636 27.7692 34.0833 27.6996 34.3301 27.6785C34.3758 27.6744 34.4214 27.6871 34.4583 27.7143C34.4952 27.7415 34.5209 27.7813 34.5305 27.8261C34.5833 28.0856 34.6613 28.5834 34.4926 28.7247C34.4209 28.7826 34.3349 28.8198 34.2437 28.8323Z" fill="#A2B983"/>
<path d="M35.8261 26.3319C35.8261 26.3319 35.3241 26.6926 35.3241 26.8403C35.3241 26.9879 35.67 27.4351 35.3241 27.4351C34.9782 27.4351 35.2418 27.8359 35.3241 28.2578L35.3452 28.3611C35.3512 28.3892 35.365 28.4151 35.385 28.4358C35.4049 28.4565 35.4303 28.4712 35.4582 28.4782C35.486 28.4852 35.5153 28.4843 35.5427 28.4755C35.5701 28.4668 35.5945 28.4505 35.6131 28.4286L35.9253 27.9646C36.0744 27.7437 36.1367 27.4755 36.1004 27.2115C36.0455 26.8065 35.9464 26.2644 35.8261 26.3319Z" fill="#A2B983"/>
<path d="M40.5845 17.4267C41.5491 17.4267 42.331 16.6448 42.331 15.6802C42.331 14.7156 41.5491 13.9336 40.5845 13.9336C39.6199 13.9336 38.8379 14.7156 38.8379 15.6802C38.8379 16.6448 39.6199 17.4267 40.5845 17.4267Z" fill="white" stroke="#018103" stroke-width="0.316406" stroke-miterlimit="10"/>
<path d="M39.247 15.4074L39.439 15.631C39.4499 15.6451 39.4658 15.6546 39.4835 15.6573C39.5012 15.6601 39.5192 15.6559 39.5339 15.6457C39.7416 15.5185 39.9622 15.4139 40.192 15.3335C40.6139 15.1859 40.8945 14.6184 40.5844 14.5045C40.5056 14.4691 40.4347 14.4182 40.376 14.3548C40.3172 14.2913 40.2719 14.2167 40.2427 14.1354C40.2366 14.1229 40.2272 14.1124 40.2154 14.105C40.2037 14.0977 40.1901 14.0938 40.1762 14.0938C40.1624 14.0938 40.1488 14.0977 40.137 14.105C40.1253 14.1124 40.1158 14.1229 40.1098 14.1354C39.9368 14.4455 39.5255 15.1395 39.266 15.3082C39.2504 15.3189 39.2397 15.3353 39.2361 15.3539C39.2326 15.3724 39.2365 15.3917 39.247 15.4074Z" fill="#A2B983"/>
<path d="M40.3335 17.3266C40.293 17.3323 40.2516 17.3282 40.213 17.3145C40.1744 17.3007 40.1398 17.2778 40.112 17.2478C40.0842 17.2177 40.0641 17.1813 40.0534 17.1418C40.0428 17.1022 40.0419 17.0607 40.0508 17.0207C40.0767 16.93 40.081 16.8345 40.0634 16.7419C40.0458 16.6492 40.0069 16.562 39.9496 16.487C39.7534 16.2613 40.1732 16.1917 40.42 16.1706C40.466 16.1666 40.5118 16.1797 40.5488 16.2073C40.5857 16.2349 40.6112 16.2752 40.6204 16.3204C40.6752 16.5798 40.7512 17.0777 40.5845 17.219C40.5121 17.2769 40.4254 17.3141 40.3335 17.3266Z" fill="#A2B983"/>
<path d="M41.9154 14.8217C41.9154 14.8217 41.4134 15.1824 41.4134 15.3322C41.4134 15.4819 41.7615 15.927 41.4134 15.927C41.0654 15.927 41.3311 16.3278 41.4134 16.7476L41.4345 16.8509C41.4399 16.8797 41.4534 16.9063 41.4734 16.9277C41.4934 16.949 41.5191 16.9642 41.5474 16.9715C41.5757 16.9788 41.6055 16.9779 41.6334 16.9689C41.6612 16.9599 41.6859 16.9431 41.7045 16.9205L42.0167 16.4565C42.1649 16.2352 42.2271 15.9674 42.1918 15.7034C42.1369 15.309 42.0399 14.7563 41.9154 14.8217Z" fill="#A2B983"/>
<path d="M26.3779 16.5654C27.3425 16.5654 28.1245 15.7834 28.1245 14.8188C28.1245 13.8542 27.3425 13.0723 26.3779 13.0723C25.4133 13.0723 24.6313 13.8542 24.6313 14.8188C24.6313 15.7834 25.4133 16.5654 26.3779 16.5654Z" fill="white" stroke="#018103" stroke-width="0.316406" stroke-miterlimit="10"/>
<path d="M25.0403 14.5441L25.2323 14.7677C25.2432 14.7818 25.2591 14.7913 25.2768 14.794C25.2945 14.7968 25.3125 14.7926 25.3272 14.7824C25.5357 14.6553 25.757 14.5507 25.9875 14.4702C26.4093 14.3226 26.6878 13.7552 26.3777 13.6413C26.2989 13.6061 26.2282 13.5553 26.1697 13.4918C26.1113 13.4283 26.0665 13.3535 26.0381 13.2721C26.032 13.2596 26.0226 13.2491 26.0108 13.2417C25.9991 13.2344 25.9855 13.2305 25.9716 13.2305C25.9578 13.2305 25.9442 13.2344 25.9324 13.2417C25.9207 13.2491 25.9112 13.2596 25.9052 13.2721C25.7301 13.5822 25.3209 14.2762 25.0614 14.4449C25.0455 14.4553 25.0343 14.4715 25.0304 14.4901C25.0264 14.5087 25.03 14.5281 25.0403 14.5441Z" fill="#A2B983"/>
<path d="M26.1289 16.4633C26.0882 16.4694 26.0466 16.4656 26.0077 16.452C25.9689 16.4384 25.9339 16.4156 25.9058 16.3855C25.8778 16.3553 25.8575 16.3188 25.8467 16.2791C25.836 16.2393 25.8351 16.1976 25.8441 16.1574C25.8705 16.0669 25.8752 15.9715 25.858 15.8788C25.8408 15.7861 25.8021 15.6988 25.745 15.6237C25.5488 15.398 25.9686 15.3284 26.2154 15.3073C26.2611 15.3034 26.3067 15.3165 26.3433 15.3441C26.3799 15.3718 26.405 15.412 26.4137 15.4571C26.4685 15.7144 26.5466 16.2144 26.3778 16.3557C26.3062 16.4135 26.2201 16.4507 26.1289 16.4633Z" fill="#A2B983"/>
<path d="M27.7193 13.9605C27.7193 13.9605 27.2172 14.3212 27.2172 14.471C27.2172 14.6207 27.5632 15.0658 27.2172 15.0658C26.8713 15.0658 27.1329 15.4666 27.2172 15.8863L27.2383 15.9897C27.2433 16.0185 27.2564 16.0452 27.2762 16.0668C27.296 16.0883 27.3215 16.1036 27.3498 16.1109C27.3781 16.1183 27.4079 16.1173 27.4356 16.1082C27.4634 16.099 27.4879 16.082 27.5062 16.0593L27.8184 15.5952C27.9675 15.3744 28.0299 15.1062 27.9935 14.8422C27.9302 14.4372 27.8332 13.8951 27.7193 13.9605Z" fill="#A2B983"/>
<path d="M31.4974 9.96945C32.6577 9.96945 33.5984 9.02883 33.5984 7.86852C33.5984 6.7082 32.6577 5.76758 31.4974 5.76758C30.3371 5.76758 29.3965 6.7082 29.3965 7.86852C29.3965 9.02883 30.3371 9.96945 31.4974 9.96945Z" fill="white" stroke="#018103" stroke-width="0.316406" stroke-miterlimit="10"/>
<path d="M29.892 7.54074L30.1219 7.80863C30.1355 7.82489 30.1544 7.83575 30.1753 7.83923C30.1962 7.84271 30.2177 7.83859 30.2358 7.82761C30.4858 7.67359 30.7518 7.54699 31.0289 7.45003C31.5415 7.27284 31.8727 6.59152 31.4972 6.45441C31.4026 6.41212 31.3175 6.35105 31.2472 6.27491C31.1768 6.19876 31.1227 6.10913 31.088 6.01144C31.0817 5.99625 31.0712 5.98313 31.0578 5.97355C31.0444 5.96398 31.0286 5.95832 31.0122 5.95723C30.9957 5.95613 30.9793 5.95964 30.9648 5.96735C30.9502 5.97507 30.9381 5.98668 30.9298 6.00089C30.7189 6.37425 30.2274 7.20745 29.9068 7.40995C29.8964 7.41695 29.8877 7.42612 29.8812 7.43682C29.8747 7.44752 29.8706 7.4595 29.8692 7.47194C29.8678 7.48437 29.8691 7.49696 29.873 7.50884C29.877 7.52072 29.8834 7.5316 29.892 7.54074Z" fill="#A2B983"/>
<path d="M31.1979 9.84635C31.1491 9.85322 31.0995 9.84822 31.0531 9.83177C31.0067 9.81533 30.9649 9.78793 30.9314 9.7519C30.8978 9.71587 30.8735 9.67227 30.8604 9.62482C30.8473 9.57736 30.8458 9.52745 30.8562 9.47932C30.886 9.37168 30.8907 9.25862 30.8699 9.14888C30.849 9.03915 30.8032 8.93568 30.7359 8.8465C30.4997 8.5765 31.0038 8.49213 31.3013 8.46682C31.3564 8.46159 31.4116 8.47703 31.456 8.51016C31.5004 8.54329 31.531 8.59174 31.5417 8.64612C31.6071 8.9562 31.6999 9.55526 31.4974 9.724C31.4102 9.79066 31.3068 9.83289 31.1979 9.84635Z" fill="#A2B983"/>
<path d="M33.0985 6.83877C33.0985 6.83877 32.4952 7.2733 32.4952 7.45049C32.4952 7.62767 32.9171 8.16557 32.4952 8.16557C32.0734 8.16557 32.3961 8.6465 32.4952 9.15275L32.5205 9.27721C32.5269 9.31163 32.5431 9.3435 32.567 9.36906C32.5909 9.39462 32.6217 9.4128 32.6556 9.42145C32.6895 9.4301 32.7252 9.42886 32.7585 9.41787C32.7917 9.40689 32.8212 9.38663 32.8433 9.35948L33.2187 8.80049C33.3973 8.53557 33.4724 8.21429 33.4297 7.89767C33.3643 7.41041 33.2462 6.75861 33.0985 6.83877Z" fill="#A2B983"/>
<path d="M12.7532 12.6821C13.7562 12.6821 14.5694 11.869 14.5694 10.866C14.5694 9.86293 13.7562 9.0498 12.7532 9.0498C11.7501 9.0498 10.937 9.86293 10.937 10.866C10.937 11.869 11.7501 12.6821 12.7532 12.6821Z" fill="white" stroke="#018103" stroke-width="0.316406" stroke-miterlimit="10"/>
<path d="M11.3633 10.5802L11.5615 10.8143C11.5737 10.828 11.5903 10.837 11.6084 10.8397C11.6266 10.8424 11.6451 10.8387 11.6607 10.8291C11.8771 10.6969 12.1069 10.588 12.3462 10.5042C12.7913 10.3503 13.074 9.75963 12.7533 9.6415C12.671 9.60541 12.597 9.55268 12.536 9.48661C12.475 9.42054 12.4284 9.34257 12.399 9.25759C12.3924 9.24473 12.3825 9.23393 12.3702 9.22639C12.3579 9.21884 12.3438 9.21484 12.3294 9.21484C12.3149 9.21484 12.3008 9.21884 12.2885 9.22639C12.2762 9.23393 12.2663 9.24473 12.2597 9.25759C12.0783 9.57822 11.6522 10.2996 11.3759 10.4747C11.368 10.4807 11.3614 10.4882 11.3565 10.4968C11.3515 10.5054 11.3484 10.5149 11.3472 10.5248C11.346 10.5346 11.3468 10.5446 11.3496 10.5541C11.3524 10.5636 11.357 10.5725 11.3633 10.5802Z" fill="#A2B983"/>
<path d="M12.4941 12.5674C12.4518 12.5735 12.4087 12.5693 12.3684 12.5551C12.3281 12.5409 12.2918 12.5171 12.2628 12.4857C12.2337 12.4544 12.2127 12.4165 12.2016 12.3752C12.1904 12.3339 12.1895 12.2906 12.1988 12.2489C12.225 12.1549 12.2292 12.056 12.2109 11.9602C12.1926 11.8643 12.1523 11.774 12.0933 11.6962C11.8824 11.4621 12.3254 11.3882 12.5827 11.3671C12.6306 11.3624 12.6786 11.3755 12.7175 11.4039C12.7564 11.4323 12.7835 11.4741 12.7936 11.5211C12.8485 11.7911 12.9286 12.3079 12.7557 12.4556C12.6796 12.5148 12.5895 12.5533 12.4941 12.5674Z" fill="#A2B983"/>
<path d="M14.1369 9.97561C14.1369 9.97561 13.6159 10.3511 13.6159 10.5051C13.6159 10.659 13.9766 11.1231 13.6159 11.1231C13.2552 11.1231 13.5294 11.545 13.6159 11.9774L13.637 12.085C13.6427 12.1146 13.6567 12.142 13.6774 12.1639C13.6981 12.1858 13.7247 12.2013 13.754 12.2087C13.7832 12.216 13.814 12.2148 13.8426 12.2052C13.8712 12.1956 13.8965 12.1781 13.9154 12.1546L14.2403 11.6715C14.3953 11.4428 14.4606 11.1649 14.4238 10.8911C14.3668 10.4692 14.2656 9.906 14.1369 9.97561Z" fill="#A2B983"/>
<path d="M22.035 5.94211C23.6322 5.94211 24.927 4.64734 24.927 3.05016C24.927 1.45297 23.6322 0.158203 22.035 0.158203C20.4378 0.158203 19.1431 1.45297 19.1431 3.05016C19.1431 4.64734 20.4378 5.94211 22.035 5.94211Z" fill="white" stroke="#018103" stroke-width="0.316406" stroke-miterlimit="10"/>
<path d="M19.822 2.59659L20.1384 2.96783C20.1573 2.99037 20.1837 3.00534 20.2128 3.00999C20.2419 3.01464 20.2716 3.00866 20.2966 2.99315C20.6399 2.78056 21.0057 2.60654 21.3872 2.47424C22.0959 2.22955 22.5473 1.29088 22.0347 1.10315C21.9043 1.04467 21.7871 0.960288 21.6903 0.855131C21.5935 0.749974 21.5191 0.626237 21.4715 0.49143C21.4623 0.470401 21.4474 0.452339 21.4286 0.439236C21.4097 0.426134 21.3876 0.418505 21.3647 0.417195C21.3417 0.415885 21.3189 0.420939 21.2987 0.431808C21.2784 0.442676 21.2616 0.458934 21.2501 0.478774C20.9632 0.991352 20.284 2.13885 19.8452 2.41729C19.831 2.42683 19.819 2.43929 19.81 2.45385C19.801 2.4684 19.7952 2.48471 19.793 2.50168C19.7908 2.51866 19.7922 2.5359 19.7972 2.55227C19.8023 2.56863 19.8107 2.58375 19.822 2.59659Z" fill="#A2B983"/>
<path d="M21.6213 5.77156C21.5545 5.78038 21.4865 5.77308 21.4231 5.75026C21.3598 5.72745 21.3028 5.68979 21.2569 5.64043C21.2111 5.59107 21.1777 5.53145 21.1596 5.46655C21.1415 5.40166 21.1393 5.33338 21.153 5.26742C21.1952 5.11722 21.2021 4.9593 21.1732 4.80598C21.1443 4.65267 21.0803 4.50812 20.9863 4.38359C20.6615 4.01234 21.3555 3.89633 21.7647 3.86258C21.8403 3.85577 21.9157 3.87692 21.9768 3.92201C22.0378 3.96711 22.0802 4.03302 22.0959 4.10727C22.1845 4.52914 22.3068 5.36023 22.0347 5.59437C21.9155 5.68976 21.7726 5.751 21.6213 5.77156Z" fill="#A2B983"/>
<path d="M24.2385 1.63025C24.2385 1.63025 23.4074 2.22721 23.4074 2.474C23.4074 2.7208 23.9812 3.45908 23.4074 3.45908C22.8337 3.45908 23.2703 4.12143 23.4074 4.81752L23.4412 4.98838C23.4507 5.03537 23.4733 5.07872 23.5064 5.11346C23.5394 5.1482 23.5816 5.17293 23.628 5.18482C23.6745 5.1967 23.7233 5.19527 23.769 5.18067C23.8147 5.16607 23.8553 5.13891 23.8863 5.10228L24.4052 4.33236C24.6503 3.96676 24.7531 3.52405 24.6941 3.08783C24.6034 2.41916 24.4431 1.52057 24.2385 1.63025Z" fill="#A2B983"/>
</g>
<path d="M7.77963 46.209H9.50088V53.8027H7.77963V46.209ZM13.5356 46.9785H15.2467V53.8027H13.5356V46.9785ZM10.5082 46.209H18.264V47.7277H10.5082V46.209ZM22.8914 46.209C23.7757 46.209 24.5485 46.3676 25.2101 46.6849C25.8783 47.0021 26.398 47.4442 26.7693 48.0112C27.1405 48.5782 27.3262 49.2431 27.3262 50.0059C27.3262 50.7619 27.1405 51.4267 26.7693 52.0005C26.398 52.5675 25.8783 53.0096 25.2101 53.3269C24.5485 53.6441 23.7757 53.8027 22.8914 53.8027H19.2869V46.209H22.8914ZM20.998 53.1244L20.1273 52.284H23.023C23.536 52.284 23.9849 52.1895 24.3697 52.0005C24.7612 51.8115 25.0615 51.5449 25.2708 51.2006C25.48 50.8564 25.5847 50.4581 25.5847 50.0059C25.5847 49.5469 25.48 49.1486 25.2708 48.8111C25.0615 48.4669 24.7612 48.2002 24.3697 48.0112C23.9849 47.8222 23.536 47.7277 23.023 47.7277H20.1273L20.998 46.8874V53.1244ZM30.6393 46.9785H32.3505V53.8027H30.6393V46.9785ZM27.612 46.209H35.3677V47.7277H27.612V46.209Z" fill="#D0E7E9"/>
<path d="M383.876 23.0995C383.55 22.7741 383.023 22.7741 382.697 23.0995C382.372 23.425 382.372 23.9526 382.697 24.2781L386.822 28.4028L382.697 32.5276C382.372 32.8531 382.372 33.3807 382.697 33.7061C383.023 34.0316 383.55 34.0316 383.876 33.7061L388.001 29.5814L392.125 33.7061C392.451 34.0316 392.978 34.0316 393.304 33.7061C393.629 33.3807 393.629 32.8531 393.304 32.5276L389.179 28.4028L393.304 24.2781C393.629 23.9526 393.629 23.425 393.304 23.0995C392.978 22.7741 392.451 22.7741 392.125 23.0995L388.001 27.2243L383.876 23.0995Z" fill="white"/>
<defs>
<clipPath id="clip0_410_4992">
<rect width="42.9996" height="40.4283" fill="white"/>
</clipPath>
</defs>
</svg>
